<?xml version="1.0" standalone="no"?><!-- Generator: Gravit.io --><svg xmlns="http://www.w3.org/2000/svg" xmlns:xlink="http://www.w3.org/1999/xlink" style="isolation:isolate" viewBox="0 0 256 256" width="256" height="256"><defs><clipPath id="_clipPath_gWVCZ87GBp7XmpxZcjDxhRvYZDI2Qfqc"><rect width="256" height="256"/></clipPath></defs><g clip-path="url(#_clipPath_gWVCZ87GBp7XmpxZcjDxhRvYZDI2Qfqc)"><g id="1f635"><g id="g12"><clipPath id="_clipPath_OOjb58Hugbng96gGBPSHAoGGUFaRYEI0"><path d=" M 0 0 L 256 0 L 256 256 L 0 256 L 0 0 Z " fill="rgb(255,255,255)"/></clipPath><g clip-path="url(#_clipPath_OOjb58Hugbng96gGBPSHAoGGUFaRYEI0)"><g id="g14"><g id="g40"><path d=" M 174.579 111.158 L 186.658 99.079 C 189.292 96.445 189.292 92.187 186.658 89.553 C 184.024 86.919 179.76 86.919 177.132 89.553 L 165.053 101.632 L 152.974 89.553 C 150.34 86.919 146.076 86.919 143.448 89.553 C 140.814 92.187 140.814 96.445 143.448 99.079 L 155.527 111.158 L 143.448 123.237 C 140.814 125.871 140.814 130.129 143.448 132.763 C 144.762 134.077 146.487 134.737 148.211 134.737 C 149.936 134.737 151.66 134.077 152.974 132.763 L 165.053 120.684 L 177.132 132.763 C 178.446 134.077 180.171 134.737 181.895 134.737 C 183.62 134.737 185.345 134.077 186.658 132.763 C 189.292 130.129 189.292 125.871 186.658 123.237 L 174.579 111.158 Z " fill="rgb(102,69,0)"/></g></g></g></g></g></g></svg>