<?xml version="1.0" standalone="no"?><!-- Generator: Gravit.io --><svg xmlns="http://www.w3.org/2000/svg" xmlns:xlink="http://www.w3.org/1999/xlink" style="isolation:isolate" viewBox="0 0 256 256" width="256" height="256"><defs><clipPath id="_clipPath_SBT0Ka8HOecEj1NpFIzArNycA76gzqfS"><rect width="256" height="256"/></clipPath></defs><g clip-path="url(#_clipPath_SBT0Ka8HOecEj1NpFIzArNycA76gzqfS)"><g id="1f61c"><g id="g12"><clipPath id="_clipPath_iqjtlMw5MTFpEeOJrg9N5pfKYqe1kW8e"><path d=" M 0 0 L 256 0 L 256 256 L 0 256 L 0 0 Z " fill="rgb(255,255,255)"/></clipPath><g clip-path="url(#_clipPath_iqjtlMw5MTFpEeOJrg9N5pfKYqe1kW8e)"><g id="g14"><g id="g28"><path d=" M 215.579 104.543 C 215.579 128.728 195.975 148.332 171.789 148.332 C 147.604 148.332 128 128.728 128 104.543 C 128 80.358 147.604 60.754 171.789 60.754 C 195.975 60.754 215.579 80.358 215.579 104.543 Z " fill="rgb(245,248,250)"/></g><g id="g32"><path d=" M 188.632 104.543 C 188.632 113.847 181.093 121.385 171.789 121.385 C 162.486 121.385 154.947 113.847 154.947 104.543 C 154.947 95.239 162.486 87.701 171.789 87.701 C 181.093 87.701 188.632 95.239 188.632 104.543 Z " fill="rgb(41,47,51)"/></g></g></g></g></g></g></svg>