<?xml version="1.0" standalone="no"?><!-- Generator: Gravit.io --><svg xmlns="http://www.w3.org/2000/svg" xmlns:xlink="http://www.w3.org/1999/xlink" style="isolation:isolate" viewBox="0 0 256 256" width="256" height="256"><defs><clipPath id="_clipPath_DRRF7QqIaQB1uXQWdnFCLqrJWD56pXUO"><rect width="256" height="256"/></clipPath></defs><g clip-path="url(#_clipPath_DRRF7QqIaQB1uXQWdnFCLqrJWD56pXUO)"><g id="1f60b"><g id="g12"><clipPath id="_clipPath_yOPmmMePUKlohwlgiW1FUbpRHmHSwH39"><path d=" M 0 0 L 256 0 L 256 256 L 0 256 L 0 0 Z " fill="rgb(255,255,255)"/></clipPath><g clip-path="url(#_clipPath_yOPmmMePUKlohwlgiW1FUbpRHmHSwH39)"><g id="g14"><g id="g32"><path d=" M 147.945 121.261 C 146.934 121.261 145.904 121.032 144.94 120.554 C 141.612 118.883 140.258 114.834 141.922 111.513 C 142.279 110.805 150.808 94.314 174.899 94.314 C 199.003 94.314 207.519 110.812 207.869 111.513 C 209.54 114.841 208.186 118.883 204.858 120.554 C 201.55 122.211 197.548 120.877 195.857 117.61 C 195.561 117.071 190.259 107.787 174.899 107.787 C 159.29 107.787 154.022 117.441 153.981 117.535 C 152.795 119.9 150.417 121.261 147.945 121.261 Z " fill="rgb(102,69,0)"/></g></g></g></g></g></g></svg>