<?xml version="1.0" standalone="no"?><!-- Generator: Gravit.io --><svg xmlns="http://www.w3.org/2000/svg" xmlns:xlink="http://www.w3.org/1999/xlink" style="isolation:isolate" viewBox="0 0 256 256" width="256" height="256"><defs><clipPath id="_clipPath_IXqh6wJl1JRE75LxkV3Fdg9z47uiIT1z"><rect width="256" height="256"/></clipPath></defs><g clip-path="url(#_clipPath_IXqh6wJl1JRE75LxkV3Fdg9z47uiIT1z)"><g id="1f61d"><g id="g12"><clipPath id="_clipPath_MevGFnD1h6aXVUPXj7TLVjt24GDIF10C"><path d=" M 0 0 L 256 0 L 256 256 L 0 256 L 0 0 Z " fill="rgb(255,255,255)"/></clipPath><g clip-path="url(#_clipPath_MevGFnD1h6aXVUPXj7TLVjt24GDIF10C)"><g id="g14"><g id="g32"><path d=" M 212.882 122.612 C 212.114 122.039 199.873 113.005 181.582 106.821 C 181.764 106.046 181.892 105.251 181.892 104.422 C 181.892 101.937 180.962 99.686 179.474 97.928 C 191.62 94.418 201.934 94.317 202.116 94.317 C 205.828 94.304 208.839 91.286 208.833 87.567 C 208.826 83.855 205.821 80.843 202.103 80.843 C 200.62 80.843 165.38 81.093 143.445 103.028 C 141.518 104.955 140.939 107.851 141.99 110.371 C 143.027 112.884 145.486 114.528 148.208 114.528 C 179.13 114.528 204.555 133.209 204.811 133.398 C 206.023 134.294 207.431 134.731 208.833 134.731 C 210.887 134.731 212.915 133.802 214.236 132.03 C 216.459 129.052 215.852 124.842 212.882 122.612 Z " fill="rgb(102,69,0)"/></g></g></g></g></g></g></svg>