<?xml version="1.0" standalone="no"?><!-- Generator: Gravit.io --><svg xmlns="http://www.w3.org/2000/svg" xmlns:xlink="http://www.w3.org/1999/xlink" style="isolation:isolate" viewBox="0 0 256 256" width="256" height="256"><defs><clipPath id="_clipPath_4MKkbI5YlAxi2JMukMfLDovlGKngoLmp"><rect width="256" height="256"/></clipPath></defs><g clip-path="url(#_clipPath_4MKkbI5YlAxi2JMukMfLDovlGKngoLmp)"><g id="1f629"><g id="g12"><clipPath id="_clipPath_sV9UK0vxAp0obEfWZC0SSLxsLEXyluc6"><path d=" M 0 0 L 256 0 L 256 256 L 0 256 L 0 0 Z " fill="rgb(255,255,255)"/></clipPath><g clip-path="url(#_clipPath_sV9UK0vxAp0obEfWZC0SSLxsLEXyluc6)"><g id="g14"><g id="g28"><path d=" M 192.934 92.28 C 192.005 91.061 190.374 90.629 188.96 91.209 C 188.919 91.229 184.695 92.933 177.258 92.933 C 172.805 92.933 168.102 92.327 163.292 91.141 C 147.326 87.221 140.589 79.365 140.542 79.298 C 139.558 78.112 137.928 77.728 136.527 78.375 C 135.132 79.015 134.351 80.517 134.62 82.026 C 134.795 83.003 139.121 106.01 158.462 110.773 C 160.55 111.285 162.699 111.547 164.835 111.547 C 180.983 111.547 192.449 97.002 192.928 96.376 C 193.864 95.177 193.857 93.493 192.934 92.28 Z " fill="rgb(102,69,0)"/></g></g></g></g></g></g></svg>