<?xml version="1.0" standalone="no"?><!-- Generator: Gravit.io --><svg xmlns="http://www.w3.org/2000/svg" xmlns:xlink="http://www.w3.org/1999/xlink" style="isolation:isolate" viewBox="0 0 256 256" width="256" height="256"><defs><clipPath id="_clipPath_S03CTlVBPye6LYvmS2TfTgN9DBDP5q7X"><rect width="256" height="256"/></clipPath></defs><g clip-path="url(#_clipPath_S03CTlVBPye6LYvmS2TfTgN9DBDP5q7X)"><g id="1f62b"><g id="g12"><clipPath id="_clipPath_mvAfXwyaGonrNdO5rCRpiu1AypgpPGA5"><path d=" M 0 0 L 256 0 L 256 256 L 0 256 L 0 0 Z " fill="rgb(255,255,255)"/></clipPath><g clip-path="url(#_clipPath_mvAfXwyaGonrNdO5rCRpiu1AypgpPGA5)"><g id="g14"><g id="g44"><path d=" M 208.835 134.73 C 207.434 134.73 206.019 134.299 204.807 133.396 C 204.551 133.201 179.133 114.526 148.211 114.526 C 145.489 114.526 143.023 112.883 141.986 110.37 C 140.941 107.85 141.521 104.953 143.448 103.027 C 165.383 81.098 200.616 80.842 202.105 80.842 C 205.824 80.842 208.829 83.853 208.835 87.572 C 208.842 91.284 205.831 94.309 202.119 94.316 C 201.876 94.316 183.37 94.498 166.696 102.858 C 193.004 107.911 211.921 121.89 212.884 122.611 C 215.855 124.84 216.461 129.051 214.238 132.035 C 212.911 133.794 210.89 134.73 208.835 134.73 Z " fill="rgb(102,69,0)"/></g></g></g></g></g></g></svg>