<?xml version="1.0" standalone="no"?><!-- Generator: Gravit.io --><svg xmlns="http://www.w3.org/2000/svg" xmlns:xlink="http://www.w3.org/1999/xlink" style="isolation:isolate" viewBox="0 0 256 256" width="256" height="256"><defs><clipPath id="_clipPath_2K45V250II8kpjHtnOpmjKVDkBzFEUWG"><rect width="256" height="256"/></clipPath></defs><g clip-path="url(#_clipPath_2K45V250II8kpjHtnOpmjKVDkBzFEUWG)"><g id="1f61e"><g id="g12"><clipPath id="_clipPath_MVDj6jyJOV8V39gzVwHqW6oMhJgICevy"><path d=" M 0 0 L 256 0 L 256 256 L 0 256 L 0 0 Z " fill="rgb(255,255,255)"/></clipPath><g clip-path="url(#_clipPath_MVDj6jyJOV8V39gzVwHqW6oMhJgICevy)"><g id="g14"><g id="g28"><path d=" M 180.415 112.105 C 178.117 111.479 175.753 111.162 173.388 111.162 C 157.59 111.162 146.084 125.04 145.599 125.626 C 144.635 126.812 144.602 128.496 145.484 129.729 C 146.387 130.968 148.004 131.433 149.432 130.901 C 149.466 130.887 153.292 129.452 159.975 129.452 C 164.785 129.452 169.865 130.18 175.093 131.608 C 190.87 135.9 197.412 143.856 197.553 144.024 C 198.213 144.86 199.19 145.318 200.207 145.318 C 200.652 145.318 201.103 145.223 201.535 145.042 C 202.943 144.435 203.765 142.953 203.535 141.444 C 203.381 140.454 199.642 117.346 180.415 112.105 Z " fill="rgb(102,69,0)"/></g></g></g></g></g></g></svg>