<?xml version="1.0" standalone="no"?><!-- Generator: Gravit.io --><svg xmlns="http://www.w3.org/2000/svg" xmlns:xlink="http://www.w3.org/1999/xlink" style="isolation:isolate" viewBox="0 0 256 256" width="256" height="256"><defs><clipPath id="_clipPath_DJHHuHBytJRulEMBBnYfxDasEfRCdq84"><rect width="256" height="256"/></clipPath></defs><g clip-path="url(#_clipPath_DJHHuHBytJRulEMBBnYfxDasEfRCdq84)"><g id="1f62a"><g id="g12"><clipPath id="_clipPath_m2wh2BY2tIt75OhPQiyu87S2MgKMBZ47"><path d=" M 0 0 L 256 0 L 256 256 L 0 256 L 0 0 Z " fill="rgb(255,255,255)"/></clipPath><g clip-path="url(#_clipPath_m2wh2BY2tIt75OhPQiyu87S2MgKMBZ47)"><g id="g14"><g id="g32"><path d=" M 197.691 125.572 C 196.512 124.434 194.679 124.319 193.359 125.289 C 193.285 125.356 184.864 131.366 168.419 131.366 C 151.974 131.366 143.56 125.356 143.493 125.303 C 142.193 124.326 140.353 124.42 139.161 125.552 C 137.969 126.684 137.766 128.503 138.669 129.87 C 139.08 130.483 148.875 144.839 168.419 144.839 C 187.963 144.839 197.765 130.483 198.169 129.87 C 199.078 128.509 198.87 126.704 197.691 125.572 Z " fill="rgb(102,69,0)"/></g></g></g></g></g></g></svg>