<?xml version="1.0" standalone="no"?><!-- Generator: Gravit.io --><svg xmlns="http://www.w3.org/2000/svg" xmlns:xlink="http://www.w3.org/1999/xlink" style="isolation:isolate" viewBox="0 0 256 256" width="256" height="256"><defs><clipPath id="_clipPath_BuEyqZmumtc2nTNnO859u9gcQVlcicD6"><rect width="256" height="256"/></clipPath></defs><g clip-path="url(#_clipPath_BuEyqZmumtc2nTNnO859u9gcQVlcicD6)"><g id="1f60c"><g id="g12"><clipPath id="_clipPath_fzOGq3qJyzwjBpdwzxSVssO1UBZLcTj5"><path d=" M 0 0 L 256 0 L 256 256 L 0 256 L 0 0 Z " fill="rgb(255,255,255)"/></clipPath><g clip-path="url(#_clipPath_fzOGq3qJyzwjBpdwzxSVssO1UBZLcTj5)"><g id="g14"><g id="g24"><path d=" M 197.474 111.911 C 196.295 110.954 194.604 110.921 193.364 111.817 C 193.283 111.884 184.869 117.893 168.424 117.893 C 151.98 117.893 143.559 111.884 143.491 111.83 C 142.265 110.907 140.568 110.934 139.375 111.891 C 138.176 112.847 137.772 114.491 138.392 115.893 C 138.796 116.802 148.497 138.104 168.424 138.104 C 188.352 138.104 198.046 116.802 198.451 115.893 C 199.064 114.498 198.666 112.868 197.474 111.911 Z " fill="rgb(102,69,0)"/></g></g></g></g></g></g></svg>