<?xml version="1.0" standalone="no"?><!-- Generator: Gravit.io --><svg xmlns="http://www.w3.org/2000/svg" xmlns:xlink="http://www.w3.org/1999/xlink" style="isolation:isolate" viewBox="0 0 256 256" width="256" height="256"><defs><clipPath id="_clipPath_dSvXnFUKiVpUG7kh5muRJ6nGLLnyvDnq"><rect width="256" height="256"/></clipPath></defs><g clip-path="url(#_clipPath_dSvXnFUKiVpUG7kh5muRJ6nGLLnyvDnq)"><g id="1f60c"><g id="g12"><clipPath id="_clipPath_l6rwqNfjqHkpIlzZFE0RyEuvL2viDRki"><path d=" M 0 0 L 256 0 L 256 256 L 0 256 L 0 0 Z " fill="rgb(255,255,255)"/></clipPath><g clip-path="url(#_clipPath_l6rwqNfjqHkpIlzZFE0RyEuvL2viDRki)"><g id="g14"><g id="g28"><path d=" M 112.519 111.819 C 112.439 111.879 104.031 117.895 87.58 117.895 C 71.135 117.895 62.721 111.879 62.653 111.832 C 61.42 110.909 59.73 110.936 58.53 111.893 C 57.331 112.85 56.934 114.493 57.554 115.895 C 57.958 116.804 67.659 138.106 87.58 138.106 C 107.507 138.106 117.202 116.804 117.606 115.895 C 118.226 114.5 117.821 112.87 116.629 111.913 C 115.443 110.95 113.746 110.923 112.519 111.819 Z " fill="rgb(102,69,0)"/></g></g></g></g></g></g></svg>