<?xml version="1.0" standalone="no"?><!-- Generator: Gravit.io --><svg xmlns="http://www.w3.org/2000/svg" xmlns:xlink="http://www.w3.org/1999/xlink" style="isolation:isolate" viewBox="0 0 256 256" width="256" height="256"><defs><clipPath id="_clipPath_Rj6r5EuiUNSeuxKh5WxYXCE2EYvlHtFo"><rect width="256" height="256"/></clipPath></defs><g clip-path="url(#_clipPath_Rj6r5EuiUNSeuxKh5WxYXCE2EYvlHtFo)"><g id="1f60f"><g id="g12"><clipPath id="_clipPath_JmJb9y27Kv5Gl5j5YdQrjYVHy8VPInKN"><path d=" M 0 0 L 256 0 L 256 256 L 0 256 L 0 0 Z " fill="rgb(255,255,255)"/></clipPath><g clip-path="url(#_clipPath_JmJb9y27Kv5Gl5j5YdQrjYVHy8VPInKN)"><g id="g14"><g id="g40"><path d=" M 194.671 123.924 C 194.826 123.574 195.069 123.284 195.163 122.9 C 196.072 119.283 193.876 115.631 190.265 114.728 C 189.053 114.425 160.179 107.453 137.738 122.395 C 134.639 124.456 133.804 128.64 135.865 131.739 C 137.165 133.686 139.301 134.737 141.484 134.737 C 142.764 134.737 144.057 134.366 145.209 133.605 C 152.566 128.694 161.122 126.909 168.579 126.464 C 168.519 126.976 168.424 127.475 168.424 128 C 168.424 135.437 174.454 141.474 181.898 141.474 C 189.336 141.474 195.372 135.437 195.372 128 C 195.372 126.572 195.089 125.218 194.671 123.924 Z " fill="rgb(102,69,0)"/></g></g></g></g></g></g></svg>