<?xml version="1.0" standalone="no"?><!-- Generator: Gravit.io --><svg xmlns="http://www.w3.org/2000/svg" xmlns:xlink="http://www.w3.org/1999/xlink" style="isolation:isolate" viewBox="0 0 256 256" width="256" height="256"><defs><clipPath id="_clipPath_at5N02MqI2nso6GpCMhVOSuA79mLgslU"><rect width="256" height="256"/></clipPath></defs><g clip-path="url(#_clipPath_at5N02MqI2nso6GpCMhVOSuA79mLgslU)"><g id="1f60f"><g id="g12"><clipPath id="_clipPath_0qkhThahZ7S3ORqScVf8Vj0Ic4UT5HjJ"><path d=" M 0 0 L 256 0 L 256 256 L 0 256 L 0 0 Z " fill="rgb(255,255,255)"/></clipPath><g clip-path="url(#_clipPath_0qkhThahZ7S3ORqScVf8Vj0Ic4UT5HjJ)"><g id="g14"><g id="g36"><path d=" M 113.832 123.934 C 113.987 123.584 114.23 123.288 114.324 122.897 C 115.227 119.286 113.031 115.628 109.427 114.725 C 108.207 114.422 79.326 107.449 56.893 122.392 C 53.8 124.46 52.965 128.643 55.027 131.736 C 56.327 133.683 58.462 134.74 60.638 134.74 C 61.918 134.74 63.219 134.37 64.371 133.608 C 71.727 128.691 80.283 126.905 87.734 126.454 C 87.673 126.973 87.579 127.471 87.579 128.003 C 87.579 135.441 93.615 141.477 101.053 141.477 C 108.497 141.477 114.526 135.441 114.526 128.003 C 114.526 126.575 114.243 125.221 113.832 123.934 Z " fill="rgb(102,69,0)"/></g></g></g></g></g></g></svg>