<?xml version="1.0" standalone="no"?><!-- Generator: Gravit.io --><svg xmlns="http://www.w3.org/2000/svg" xmlns:xlink="http://www.w3.org/1999/xlink" style="isolation:isolate" viewBox="0 0 256 256" width="256" height="256"><defs><clipPath id="_clipPath_XaW4nFjEXRdfTqXS1zSfN08dGb0Yd5bO"><rect width="256" height="256"/></clipPath></defs><g clip-path="url(#_clipPath_XaW4nFjEXRdfTqXS1zSfN08dGb0Yd5bO)"><g id="1f639"><g id="g12"><clipPath id="_clipPath_oSbRWGmubqT3Hh9djbFmjfKm3dpfoXqX"><path d=" M 0 0 L 256 0 L 256 256 L 0 256 L 0 0 Z " fill="rgb(255,255,255)"/></clipPath><g clip-path="url(#_clipPath_oSbRWGmubqT3Hh9djbFmjfKm3dpfoXqX)"><g id="g14"><g id="g52"><path d=" M 198.171 126.132 C 197.76 125.519 187.965 111.156 168.421 111.156 C 148.884 111.156 139.082 125.519 138.671 126.132 C 137.762 127.493 137.971 129.298 139.149 130.43 C 140.322 131.555 142.161 131.67 143.481 130.706 C 143.562 130.646 151.983 124.63 168.421 124.63 C 184.765 124.63 193.172 130.571 193.361 130.706 C 193.96 131.151 194.661 131.366 195.368 131.366 C 196.204 131.366 197.039 131.057 197.686 130.45 C 198.872 129.318 199.08 127.499 198.171 126.132 Z " fill="rgb(41,47,51)"/></g></g></g></g></g></g></svg>