<?xml version="1.0" standalone="no"?><!-- Generator: Gravit.io --><svg xmlns="http://www.w3.org/2000/svg" xmlns:xlink="http://www.w3.org/1999/xlink" style="isolation:isolate" viewBox="0 0 256 256" width="256" height="256"><defs><clipPath id="_clipPath_UWh2G9ESnWVA0bBPKz95xgyUEUiKA4BJ"><rect width="256" height="256"/></clipPath></defs><g clip-path="url(#_clipPath_UWh2G9ESnWVA0bBPKz95xgyUEUiKA4BJ)"><g id="1f639"><g id="g12"><clipPath id="_clipPath_KUDh0UxW3aZxK41UCoEqiOqLMEMIjNC8"><path d=" M 0 0 L 256 0 L 256 256 L 0 256 L 0 0 Z " fill="rgb(255,255,255)"/></clipPath><g clip-path="url(#_clipPath_KUDh0UxW3aZxK41UCoEqiOqLMEMIjNC8)"><g id="g14"><g id="g56"><path d=" M 117.329 126.132 C 116.918 125.519 107.123 111.156 87.579 111.156 C 68.042 111.156 58.24 125.519 57.829 126.132 C 56.926 127.493 57.128 129.298 58.307 130.43 C 59.493 131.555 61.319 131.67 62.632 130.706 C 62.72 130.646 71.134 124.63 87.579 124.63 C 103.923 124.63 112.33 130.571 112.519 130.706 C 113.118 131.151 113.819 131.366 114.526 131.366 C 115.362 131.366 116.197 131.057 116.844 130.45 C 118.029 129.318 118.238 127.499 117.329 126.132 Z " fill="rgb(41,47,51)"/></g></g></g></g></g></g></svg>