<?xml version="1.0" standalone="no"?><!-- Generator: Gravit.io --><svg xmlns="http://www.w3.org/2000/svg" xmlns:xlink="http://www.w3.org/1999/xlink" style="isolation:isolate" viewBox="0 0 256 256" width="256" height="256"><defs><clipPath id="_clipPath_FuT31Oq58NTGsgkdIHZeJOvisrjUPafN"><rect width="256" height="256"/></clipPath></defs><g clip-path="url(#_clipPath_FuT31Oq58NTGsgkdIHZeJOvisrjUPafN)"><g id="1f60a"><g id="g12"><clipPath id="_clipPath_aM28nwvKpOnYEm0HmxQw9obP0hPneGQ5"><path d=" M 0 0 L 256 0 L 256 256 L 0 256 L 0 0 Z " fill="rgb(255,255,255)"/></clipPath><g clip-path="url(#_clipPath_aM28nwvKpOnYEm0HmxQw9obP0hPneGQ5)"><g id="g14"><g id="g32"><path d=" M 190.888 152.447 C 189.689 151.363 187.897 151.295 186.611 152.252 C 186.348 152.447 160.189 171.789 128 171.789 C 95.892 171.789 69.645 152.447 69.389 152.252 C 68.103 151.295 66.311 151.376 65.112 152.447 C 63.919 153.525 63.65 155.304 64.478 156.678 C 65.347 158.126 86.151 191.999 128 191.999 C 169.849 191.999 190.659 158.126 191.522 156.678 C 192.35 155.297 192.088 153.525 190.888 152.447 Z " fill="rgb(102,69,0)"/></g></g></g></g></g></g></svg>