<?xml version="1.0" standalone="no"?><!-- Generator: Gravit.io --><svg xmlns="http://www.w3.org/2000/svg" xmlns:xlink="http://www.w3.org/1999/xlink" style="isolation:isolate" viewBox="0 0 256 256" width="256" height="256"><defs><clipPath id="_clipPath_2wNGy24ExLCzWemMc8qRaLNIsqXYXLVH"><rect width="256" height="256"/></clipPath></defs><g clip-path="url(#_clipPath_2wNGy24ExLCzWemMc8qRaLNIsqXYXLVH)"><g id="1f60b"><g id="g12"><clipPath id="_clipPath_mdhtoJ5TpHMEKbOQQIxs1huZ0tTv3jV2"><path d=" M 0 0 L 256 0 L 256 256 L 0 256 L 0 0 Z " fill="rgb(255,255,255)"/></clipPath><g clip-path="url(#_clipPath_mdhtoJ5TpHMEKbOQQIxs1huZ0tTv3jV2)"><g id="g14"><g id="g24"><path d=" M 148.211 202.105 L 181.895 235.789 C 193.536 247.431 215.579 249.263 229.053 235.789 C 242.526 222.316 241.873 202.361 230.232 190.713 L 202.105 161.684 C 181.895 195.368 148.211 202.105 148.211 202.105 Z " fill="rgb(231,90,112)"/></g><g id="g28"><path d=" M 128 215.579 C 84.473 215.579 69.133 193.314 68.5 192.371 C 66.439 189.272 67.274 185.095 70.366 183.027 C 73.445 180.972 77.595 181.787 79.677 184.832 C 80.249 185.661 92.335 202.105 128 202.105 C 182.44 202.105 195.065 155.291 195.571 153.297 C 196.5 149.699 200.145 147.51 203.756 148.426 C 207.353 149.336 209.543 152.98 208.64 156.578 C 208.492 157.171 193.139 215.579 128 215.579 Z " fill="rgb(102,69,0)"/></g></g></g></g></g></g></svg>