<?xml version="1.0" standalone="no"?><!-- Generator: Gravit.io --><svg xmlns="http://www.w3.org/2000/svg" xmlns:xlink="http://www.w3.org/1999/xlink" style="isolation:isolate" viewBox="0 0 256 256" width="256" height="256"><defs><clipPath id="_clipPath_RwReSMMT34IDMAiJVDoqyMzs7Bn2n4zs"><rect width="256" height="256"/></clipPath></defs><g clip-path="url(#_clipPath_RwReSMMT34IDMAiJVDoqyMzs7Bn2n4zs)"><g id="1f600"><g id="g12"><clipPath id="_clipPath_vMlYe6nzd3Zr0K5frCM4kS874DoGFlRL"><path d=" M 0 0 L 256 0 L 256 256 L 0 256 L 0 0 Z " fill="rgb(255,255,255)"/></clipPath><g clip-path="url(#_clipPath_vMlYe6nzd3Zr0K5frCM4kS874DoGFlRL)"><g id="g14"><g id="g24"><path d=" M 128 148.211 C 103.592 148.211 87.397 145.368 67.368 141.474 C 62.794 140.591 53.895 141.474 53.895 154.947 C 53.895 181.895 84.851 215.579 128 215.579 C 171.143 215.579 202.105 181.895 202.105 154.947 C 202.105 141.474 193.206 140.584 188.632 141.474 C 168.603 145.368 152.408 148.211 128 148.211 Z " fill="rgb(102,69,0)"/></g><g id="g36"><path d=" M 67.368 154.947 C 67.368 154.947 87.579 161.684 128 161.684 C 168.421 161.684 188.632 154.947 188.632 154.947 C 188.632 154.947 175.158 181.895 128 181.895 C 80.842 181.895 67.368 154.947 67.368 154.947 Z " fill="rgb(255,255,255)"/></g></g></g></g></g></g></svg>