<?xml version="1.0" standalone="no"?><!-- Generator: Gravit.io --><svg xmlns="http://www.w3.org/2000/svg" xmlns:xlink="http://www.w3.org/1999/xlink" style="isolation:isolate" viewBox="0 0 256 256" width="256" height="256"><defs><clipPath id="_clipPath_5b5P8XMelU9B0tceDXBk540IVrYKC4cp"><rect width="256" height="256"/></clipPath></defs><g clip-path="url(#_clipPath_5b5P8XMelU9B0tceDXBk540IVrYKC4cp)"><g id="1f642"><g id="g12"><clipPath id="_clipPath_3EmQbgTfMzLXyVTAxkokUyyyZRsInSCj"><path d=" M 0 0 L 256 0 L 256 256 L 0 256 L 0 0 Z " fill="rgb(255,255,255)"/></clipPath><g clip-path="url(#_clipPath_3EmQbgTfMzLXyVTAxkokUyyyZRsInSCj)"><g id="g14"><g id="g32"><path d=" M 190.888 159.184 C 189.689 158.1 187.897 158.032 186.611 158.989 C 186.348 159.184 160.189 178.526 128 178.526 C 95.892 178.526 69.645 159.184 69.389 158.989 C 68.103 158.032 66.311 158.113 65.112 159.184 C 63.919 160.262 63.65 162.041 64.478 163.415 C 65.347 164.863 86.151 198.736 128 198.736 C 169.849 198.736 190.659 164.863 191.522 163.415 C 192.35 162.034 192.088 160.262 190.888 159.184 Z " fill="rgb(102,69,0)"/></g></g></g></g></g></g></svg>