<?xml version="1.0" standalone="no"?><!-- Generator: Gravit.io --><svg xmlns="http://www.w3.org/2000/svg" xmlns:xlink="http://www.w3.org/1999/xlink" style="isolation:isolate" viewBox="0 0 256 256" width="256" height="256"><defs><clipPath id="_clipPath_4r3sYiYUOebXiyf8436vwNj5pUml4534"><rect width="256" height="256"/></clipPath></defs><g clip-path="url(#_clipPath_4r3sYiYUOebXiyf8436vwNj5pUml4534)"><g id="1f626"><g id="g12"><clipPath id="_clipPath_WyFbfoYxzyXguicQt4YAyW1fGzI0UvbT"><path d=" M 0 0 L 256 0 L 256 256 L 0 256 L 0 0 Z " fill="rgb(255,255,255)"/></clipPath><g clip-path="url(#_clipPath_WyFbfoYxzyXguicQt4YAyW1fGzI0UvbT)"><g id="g14"><g id="g32"><path d=" M 164.954 194.553 C 164.873 194.256 157.234 165.052 128.003 165.052 C 98.758 165.052 91.118 194.256 91.051 194.553 C 90.694 195.988 91.341 197.456 92.607 198.217 C 93.874 198.972 95.524 198.797 96.622 197.813 C 96.69 197.766 103.454 191.999 128.003 191.999 C 152.181 191.999 159.107 197.591 159.369 197.813 C 160.009 198.42 160.845 198.736 161.687 198.736 C 162.253 198.736 162.825 198.595 163.344 198.305 C 164.665 197.55 165.325 196.021 164.954 194.553 Z " fill="rgb(102,69,0)"/></g></g></g></g></g></g></svg>