<?xml version="1.0" standalone="no"?><!-- Generator: Gravit.io --><svg xmlns="http://www.w3.org/2000/svg" xmlns:xlink="http://www.w3.org/1999/xlink" style="isolation:isolate" viewBox="0 0 256 256" width="256" height="256"><defs><clipPath id="_clipPath_mCsaGid1XqJWklHEFJeKRAvZ2lNDV8Vq"><rect width="256" height="256"/></clipPath></defs><g clip-path="url(#_clipPath_mCsaGid1XqJWklHEFJeKRAvZ2lNDV8Vq)"><g id="1f617"><g id="g12"><clipPath id="_clipPath_Rsg0cWmgUjnsMZfAWSBvIKdb03izL7ha"><path d=" M 0 0 L 256 0 L 256 256 L 0 256 L 0 0 Z " fill="rgb(255,255,255)"/></clipPath><g clip-path="url(#_clipPath_Rsg0cWmgUjnsMZfAWSBvIKdb03izL7ha)"><g id="g14"><g id="g32"><path d=" M 147.342 195.368 C 156.336 192.593 165.053 187.581 165.053 178.526 C 165.053 160.883 131.962 158.531 128.189 158.323 C 126.343 158.141 124.76 159.623 124.639 161.475 C 124.524 163.315 125.919 164.911 127.765 165.046 C 128.001 165.059 151.58 167.06 151.58 178.526 C 151.58 189.992 128.001 191.993 127.765 192.007 C 127.677 192.013 127.603 192.061 127.522 192.074 C 127.159 192.115 126.828 192.189 126.519 192.35 C 126.478 192.371 126.451 192.397 126.418 192.411 C 126.094 192.593 125.804 192.802 125.562 193.078 C 125.468 193.179 125.407 193.287 125.326 193.395 C 125.171 193.61 125.023 193.826 124.922 194.088 C 124.841 194.284 124.801 194.493 124.76 194.701 C 124.727 194.863 124.646 194.998 124.639 195.16 C 124.632 195.227 124.666 195.294 124.666 195.368 C 124.666 195.443 124.632 195.51 124.639 195.577 C 124.646 195.746 124.727 195.88 124.76 196.042 C 124.801 196.251 124.834 196.446 124.915 196.642 C 125.003 196.851 125.124 197.026 125.245 197.208 C 125.36 197.376 125.461 197.544 125.602 197.693 C 125.751 197.848 125.939 197.969 126.121 198.097 C 126.29 198.211 126.431 198.326 126.62 198.413 C 126.835 198.515 127.064 198.555 127.293 198.595 C 127.455 198.636 127.596 198.717 127.765 198.73 C 128.001 198.744 151.58 200.744 151.58 212.211 C 151.58 223.677 128.001 225.677 127.765 225.691 C 125.919 225.826 124.524 227.422 124.639 229.261 C 124.754 231.047 126.236 232.421 127.994 232.421 C 128.061 232.421 128.129 232.421 128.189 232.414 C 131.962 232.205 165.053 229.854 165.053 212.211 C 165.053 203.156 156.336 198.144 147.342 195.368 Z " fill="rgb(102,69,0)"/></g></g></g></g></g></g></svg>