<?xml version="1.0" standalone="no"?><!-- Generator: Gravit.io --><svg xmlns="http://www.w3.org/2000/svg" xmlns:xlink="http://www.w3.org/1999/xlink" style="isolation:isolate" viewBox="0 0 256 256" width="256" height="256"><defs><clipPath id="_clipPath_EYCjvCjrybbkxPhK2W7Pv5ZAnWxfNkF7"><rect width="256" height="256"/></clipPath></defs><g clip-path="url(#_clipPath_EYCjvCjrybbkxPhK2W7Pv5ZAnWxfNkF7)"><g id="1f609"><g id="g12"><clipPath id="_clipPath_SBIlNR9dKvDgoVqK7VJXG8G6PlHtp9LK"><path d=" M 0 0 L 256 0 L 256 256 L 0 256 L 0 0 Z " fill="rgb(255,255,255)"/></clipPath><g clip-path="url(#_clipPath_SBIlNR9dKvDgoVqK7VJXG8G6PlHtp9LK)"><g id="g14"><g id="g40"><path d=" M 163.395 165.572 C 162.135 164.831 160.484 164.986 159.373 165.976 C 159.312 166.023 152.548 171.79 127.999 171.79 C 103.47 171.79 96.707 166.037 96.7 166.037 C 95.622 164.959 93.972 164.757 92.651 165.484 C 91.337 166.239 90.677 167.768 91.048 169.237 C 91.122 169.533 98.761 198.738 127.999 198.738 C 157.237 198.738 164.877 169.533 164.951 169.237 C 165.308 167.802 164.654 166.333 163.395 165.572 Z " fill="rgb(102,69,0)"/></g></g></g></g></g></g></svg>