<?xml version="1.0" standalone="no"?><!-- Generator: Gravit.io --><svg xmlns="http://www.w3.org/2000/svg" xmlns:xlink="http://www.w3.org/1999/xlink" style="isolation:isolate" viewBox="0 0 256 256" width="256" height="256"><defs><clipPath id="_clipPath_PHcosaejrqqHe1rh4yLGnoZ9S7LZg45d"><rect width="256" height="256"/></clipPath></defs><g clip-path="url(#_clipPath_PHcosaejrqqHe1rh4yLGnoZ9S7LZg45d)"><g id="1f616"><g id="g12"><clipPath id="_clipPath_TuOVvkqxAPZjVedVHS8nQOA1U45BE6RL"><path d=" M 0 0 L 256 0 L 256 256 L 0 256 L 0 0 Z " fill="rgb(255,255,255)"/></clipPath><g clip-path="url(#_clipPath_TuOVvkqxAPZjVedVHS8nQOA1U45BE6RL)"><g id="g14"><g id="g40"><path d=" M 128 208.842 C 125.952 208.842 124.019 207.912 122.739 206.316 L 101.221 179.422 L 86.232 199.411 C 85.059 200.973 83.267 201.95 81.32 202.085 C 79.367 202.233 77.453 201.512 76.079 200.131 L 69.342 193.395 C 66.708 190.76 66.708 186.503 69.342 183.869 C 71.976 181.235 76.234 181.235 78.868 183.869 L 80.115 185.115 L 95.663 164.379 C 96.916 162.708 98.863 161.718 100.945 161.684 C 102.939 161.617 105.007 162.58 106.314 164.211 L 128 191.32 L 149.686 164.211 C 150.986 162.587 152.947 161.684 155.055 161.684 C 157.137 161.718 159.084 162.708 160.337 164.379 L 175.885 185.115 L 177.132 183.869 C 179.766 181.235 184.024 181.235 186.658 183.869 C 189.292 186.503 189.292 190.76 186.658 193.395 L 179.921 200.131 C 178.54 201.512 176.701 202.247 174.68 202.085 C 172.733 201.95 170.941 200.973 169.768 199.411 L 154.779 179.422 L 133.261 206.316 C 131.981 207.912 130.048 208.842 128 208.842 Z " fill="rgb(102,69,0)"/></g></g></g></g></g></g></svg>