<?xml version="1.0" standalone="no"?><!-- Generator: Gravit.io --><svg xmlns="http://www.w3.org/2000/svg" xmlns:xlink="http://www.w3.org/1999/xlink" style="isolation:isolate" viewBox="0 0 256 256" width="256" height="256"><defs><clipPath id="_clipPath_8Pf12GlIHKHsynV3VqqggaFvsnoi2iFe"><rect width="256" height="256"/></clipPath></defs><g clip-path="url(#_clipPath_8Pf12GlIHKHsynV3VqqggaFvsnoi2iFe)"><g id="1f624"><g id="g12"><clipPath id="_clipPath_hZsyDPd6qY8ddpboOWSEAreVFUvC9OYj"><path d=" M 0 0 L 256 0 L 256 256 L 0 256 L 0 0 Z " fill="rgb(255,255,255)"/></clipPath><g clip-path="url(#_clipPath_hZsyDPd6qY8ddpboOWSEAreVFUvC9OYj)"><g id="g14"><g id="g40"><path d=" M 181.901 188.632 C 179.847 188.632 177.826 187.702 176.505 185.937 C 176.337 185.708 157.763 161.684 128 161.684 C 98.237 161.684 79.67 185.708 79.481 185.95 C 77.238 188.901 73.007 189.494 70.05 187.264 C 67.085 185.027 66.486 180.824 68.716 177.853 C 69.625 176.647 91.365 148.211 128 148.211 C 164.628 148.211 186.375 176.647 187.284 177.853 C 189.521 180.83 188.915 185.054 185.937 187.284 C 184.724 188.194 183.309 188.632 181.901 188.632 Z " fill="rgb(102,69,0)"/></g></g></g></g></g></g></svg>