<?xml version="1.0" standalone="no"?><!-- Generator: Gravit.io --><svg xmlns="http://www.w3.org/2000/svg" xmlns:xlink="http://www.w3.org/1999/xlink" style="isolation:isolate" viewBox="0 0 256 256" width="256" height="256"><defs><clipPath id="_clipPath_V0vZWhXYi8wWJZDLaciGwFLGWCM4bOs2"><rect width="256" height="256"/></clipPath></defs><g clip-path="url(#_clipPath_V0vZWhXYi8wWJZDLaciGwFLGWCM4bOs2)"><g id="1f60f"><g id="g12"><clipPath id="_clipPath_BgVDF5r0IJUNKS5Ultl4N8OaznUe2YPG"><path d=" M 0 0 L 256 0 L 256 256 L 0 256 L 0 0 Z " fill="rgb(255,255,255)"/></clipPath><g clip-path="url(#_clipPath_BgVDF5r0IJUNKS5Ultl4N8OaznUe2YPG)"><g id="g14"><g id="g24"><path d=" M 170.625 165.875 C 169.594 164.986 168.146 164.804 166.913 165.41 L 139.965 178.884 C 127.361 185.183 94.647 185.264 94.316 185.264 L 94.31 185.264 C 92.45 185.264 90.948 186.773 90.948 188.632 C 90.948 189.872 91.622 190.97 92.632 191.549 L 92.632 191.549 L 92.639 191.549 L 92.639 191.549 C 92.646 191.556 92.646 191.556 92.646 191.556 C 93.124 191.832 93.676 191.987 94.263 192.001 L 94.316 192.001 L 141.474 192.001 C 159.381 192.001 169.021 177.274 171.615 169.486 C 172.046 168.193 171.655 166.771 170.625 165.875 Z " fill="rgb(102,69,0)"/></g></g></g></g></g></g></svg>