<?xml version="1.0" standalone="no"?><!-- Generator: Gravit.io --><svg xmlns="http://www.w3.org/2000/svg" xmlns:xlink="http://www.w3.org/1999/xlink" style="isolation:isolate" viewBox="0 0 256 256" width="256" height="256"><defs><clipPath id="_clipPath_3wKZX3sn2v6lMYs378wJW82eq5kmZope"><rect width="256" height="256"/></clipPath></defs><g clip-path="url(#_clipPath_3wKZX3sn2v6lMYs378wJW82eq5kmZope)"><g id="1f63c"><g id="g12"><clipPath id="_clipPath_42XzOck9pGou89R6r19LDJUUlw6DDUmd"><path d=" M 0 0 L 256 0 L 256 256 L 0 256 L 0 0 Z " fill="rgb(255,255,255)"/></clipPath><g clip-path="url(#_clipPath_42XzOck9pGou89R6r19LDJUUlw6DDUmd)"><g id="g14"><g id="g60"><path d=" M 177.362 179.349 C 176.338 178.46 174.876 178.278 173.65 178.884 L 146.702 192.358 C 134.098 198.657 101.383 198.738 101.053 198.738 L 101.047 198.738 C 99.187 198.738 97.685 200.247 97.685 202.106 C 97.685 203.352 98.359 204.444 99.369 205.023 L 99.369 205.03 L 99.376 205.03 L 99.376 205.03 C 99.383 205.036 99.383 205.036 99.383 205.036 C 99.861 205.306 100.413 205.461 100.999 205.474 L 101.053 205.474 L 148.211 205.474 C 166.118 205.474 175.758 190.748 178.352 182.96 C 178.783 181.666 178.392 180.245 177.362 179.349 Z " fill="rgb(41,47,51)"/></g></g></g></g></g></g></svg>