<?xml version="1.0" standalone="no"?><!-- Generator: Gravit.io --><svg xmlns="http://www.w3.org/2000/svg" xmlns:xlink="http://www.w3.org/1999/xlink" style="isolation:isolate" viewBox="0 0 256 256" width="256" height="256"><defs><clipPath id="_clipPath_ZQiktoOcmuyebxF8w0bHV1GMehU9sAby"><rect width="256" height="256"/></clipPath></defs><g clip-path="url(#_clipPath_ZQiktoOcmuyebxF8w0bHV1GMehU9sAby)"><g id="1f639"><g id="g12"><clipPath id="_clipPath_krQYCVLSqb5W1RmftDjx3mzeE0HtRnrv"><path d=" M 0 0 L 256 0 L 256 256 L 0 256 L 0 0 Z " fill="rgb(255,255,255)"/></clipPath><g clip-path="url(#_clipPath_krQYCVLSqb5W1RmftDjx3mzeE0HtRnrv)"><g id="g14"><g id="g24"><path d=" M 218.303 166.434 C 217.474 165.296 216.026 164.784 214.651 165.181 C 214.186 165.316 167.493 178.527 127.995 178.527 C 88.531 178.527 41.811 165.316 41.346 165.181 C 39.938 164.764 38.442 165.33 37.627 166.535 C 36.819 167.741 36.866 169.338 37.762 170.49 C 39.729 173.023 86.409 232.422 127.995 232.422 C 176.399 232.422 216.693 172.828 218.383 170.288 C 219.165 169.109 219.131 167.58 218.303 166.434 Z " fill="rgb(41,47,51)"/></g><g id="g28"><path d=" M 60.628 175.158 C 60.628 175.158 94.312 188.632 127.997 188.632 C 161.681 188.632 195.365 175.158 195.365 175.158 C 195.365 175.158 195.365 195.368 188.628 195.368 C 181.891 195.368 175.155 188.632 175.155 188.632 C 175.155 188.632 148.207 202.105 127.997 202.105 C 107.786 202.105 80.839 188.632 80.839 188.632 C 80.839 188.632 74.102 195.368 67.365 195.368 C 60.628 195.368 60.628 175.158 60.628 175.158 Z " fill="rgb(245,248,250)"/></g></g></g></g></g></g></svg>