<?xml version="1.0" standalone="no"?><!-- Generator: Gravit.io --><svg xmlns="http://www.w3.org/2000/svg" xmlns:xlink="http://www.w3.org/1999/xlink" style="isolation:isolate" viewBox="0 0 256 256" width="256" height="256"><defs><clipPath id="_clipPath_ePAdlh8F9DyUn8HQmQFkL3zGp5W7wTmz"><rect width="256" height="256"/></clipPath></defs><g clip-path="url(#_clipPath_ePAdlh8F9DyUn8HQmQFkL3zGp5W7wTmz)"><g id="1f63d"><g id="g12"><clipPath id="_clipPath_l73AazFTXi80EFKpVH73A5jnKvypsJ9O"><path d=" M 0 0 L 256 0 L 256 256 L 0 256 L 0 0 Z " fill="rgb(255,255,255)"/></clipPath><g clip-path="url(#_clipPath_l73AazFTXi80EFKpVH73A5jnKvypsJ9O)"><g id="g14"><g id="g60"><path d=" M 154.079 208.842 C 163.073 206.067 171.79 201.054 171.79 192 C 171.79 174.356 138.699 172.005 134.919 171.796 C 133.053 171.56 131.484 173.103 131.376 174.949 C 131.261 176.788 132.656 178.385 134.502 178.52 C 134.738 178.533 158.316 180.534 158.316 192 C 158.316 203.466 134.738 205.467 134.502 205.48 C 134.434 205.487 134.38 205.521 134.313 205.534 C 133.484 205.588 132.77 205.965 132.245 206.592 C 132.204 206.639 132.171 206.7 132.13 206.74 C 131.942 207.01 131.767 207.272 131.645 207.582 C 131.571 207.764 131.538 207.96 131.497 208.155 C 131.47 208.317 131.389 208.465 131.376 208.633 C 131.369 208.701 131.403 208.768 131.403 208.842 C 131.403 208.916 131.369 208.984 131.376 209.051 C 131.389 209.226 131.463 209.361 131.497 209.529 C 131.538 209.725 131.571 209.92 131.652 210.109 C 131.74 210.331 131.868 210.513 131.996 210.701 C 132.103 210.863 132.198 211.018 132.326 211.16 C 132.487 211.321 132.676 211.449 132.878 211.577 C 133.033 211.692 133.175 211.8 133.356 211.887 C 133.565 211.988 133.794 212.029 134.03 212.069 C 134.192 212.109 134.327 212.19 134.502 212.204 C 134.738 212.217 158.316 214.218 158.316 225.684 C 158.316 237.15 134.738 239.151 134.502 239.165 C 132.656 239.299 131.261 240.896 131.376 242.735 C 131.484 244.52 132.966 245.895 134.738 245.895 C 134.798 245.895 134.859 245.895 134.919 245.888 C 138.699 245.679 171.79 243.328 171.79 225.684 C 171.79 216.63 163.073 211.618 154.079 208.842 Z " fill="rgb(41,47,51)"/></g></g></g></g></g></g></svg>