<?xml version="1.0" standalone="no"?><!-- Generator: Gravit.io --><svg xmlns="http://www.w3.org/2000/svg" xmlns:xlink="http://www.w3.org/1999/xlink" style="isolation:isolate" viewBox="0 0 256 256" width="256" height="256"><defs><clipPath id="_clipPath_rjHN11zx70FwB4WpozTTrLJbxbvtf5XI"><rect width="256" height="256"/></clipPath></defs><g clip-path="url(#_clipPath_rjHN11zx70FwB4WpozTTrLJbxbvtf5XI)"><g id="1f63f"><g id="g12"><clipPath id="_clipPath_gTNyMbZDdPoRE7985HpMeqLEH03PqaMV"><path d=" M 0 0 L 256 0 L 256 256 L 0 256 L 0 0 Z " fill="rgb(255,255,255)"/></clipPath><g clip-path="url(#_clipPath_gTNyMbZDdPoRE7985HpMeqLEH03PqaMV)"><g id="g14"><g id="g32"><path d=" M 177.599 213.125 C 174.345 207.964 154.592 178.524 127.995 178.524 C 99.471 178.524 78.816 212.404 77.954 213.846 C 77.139 215.2 77.381 216.924 78.513 218.022 C 79.16 218.629 80.002 218.945 80.844 218.945 C 81.491 218.945 82.144 218.763 82.71 218.379 C 82.906 218.251 102.368 205.472 127.995 205.472 C 153.541 205.472 173.098 218.258 173.287 218.379 C 173.866 218.77 174.735 219.026 175.187 218.945 C 177.053 218.918 178.656 217.477 178.656 215.577 C 178.656 214.614 178.259 213.745 177.599 213.125 Z " fill="rgb(41,47,51)"/></g></g></g></g></g></g></svg>