<?xml version="1.0" standalone="no"?><!-- Generator: Gravit.io --><svg xmlns="http://www.w3.org/2000/svg" xmlns:xlink="http://www.w3.org/1999/xlink" style="isolation:isolate" viewBox="0 0 256 256" width="256" height="256"><defs><clipPath id="_clipPath_GqQ4FmPMnq0uFgOBgnFXN5TC2k5yH3i2"><rect width="256" height="256"/></clipPath></defs><g clip-path="url(#_clipPath_GqQ4FmPMnq0uFgOBgnFXN5TC2k5yH3i2)"><g id="1f60d"><g id="g12"><clipPath id="_clipPath_nhyYNDznE0djdCARgn0BWQ17X6Bkulwk"><path d=" M 0 0 L 256 0 L 256 256 L 0 256 L 0 0 Z " fill="rgb(255,255,255)"/></clipPath><g clip-path="url(#_clipPath_nhyYNDznE0djdCARgn0BWQ17X6Bkulwk)"><g id="g14"><g id="g28"><path d=" M 118.905 28.839 C 113.118 12.462 95.164 3.866 78.78 9.639 C 68.836 13.149 61.796 21.166 59.054 30.557 C 51.031 24.965 40.521 23.146 30.598 26.643 C 14.221 32.423 5.618 50.39 11.398 66.767 C 12.22 69.092 13.311 71.234 14.578 73.221 C 27.721 97.353 65.697 114.316 88.697 114.525 C 106.455 99.926 125.385 62.894 120.474 35.859 C 120.218 33.514 119.713 31.157 118.905 28.839 Z " fill="rgb(231,90,112)"/></g></g></g></g></g></g></svg>