<?xml version="1.0" standalone="no"?><!-- Generator: Gravit.io --><svg xmlns="http://www.w3.org/2000/svg" xmlns:xlink="http://www.w3.org/1999/xlink" style="isolation:isolate" viewBox="0 0 256 256" width="256" height="256"><defs><clipPath id="_clipPath_jtRUUMRiE00fWMx3tKUzlEAeR9pwtEIk"><rect width="256" height="256"/></clipPath></defs><g clip-path="url(#_clipPath_jtRUUMRiE00fWMx3tKUzlEAeR9pwtEIk)"><g id="1f4a2"><g id="g12"><clipPath id="_clipPath_Q3e3UqUd6M7lKmyVm3FKQGnAzVvKZdKA"><path d=" M 168 21 L 238 21 L 238 91 L 168 91 L 168 21 Z " fill="rgb(255,255,255)"/></clipPath><g clip-path="url(#_clipPath_Q3e3UqUd6M7lKmyVm3FKQGnAzVvKZdKA)"><g id="g14"><g id="g20"><path d=" M 174.701 66.723 L 171.708 61.013 L 174.563 59.517 C 178.971 57.205 183.74 54.4 184.534 50.34 C 185.151 47.182 183.409 43.15 179.354 38.357 L 177.273 35.896 L 182.195 31.731 L 184.278 34.194 C 189.733 40.645 191.888 46.331 190.862 51.578 C 189.408 59.012 181.697 63.056 177.556 65.228 L 174.701 66.723 Z " fill="rgb(190,25,49)"/></g><g id="g24"><path d=" M 208.397 87.219 L 206.901 84.363 C 204.589 79.955 201.784 75.186 197.724 74.392 C 194.568 73.773 190.534 75.518 185.739 79.572 L 183.278 81.654 L 179.115 76.732 L 181.576 74.65 C 188.027 69.194 193.706 67.035 198.96 68.066 C 206.396 69.518 210.438 77.227 212.61 81.37 L 214.107 84.225 L 208.397 87.219 Z " fill="rgb(190,25,49)"/></g><g id="g28"><path d=" M 224.112 79.809 L 222.031 77.348 C 216.574 70.897 214.421 65.21 215.447 59.964 C 216.898 52.527 224.61 48.486 228.752 46.314 L 231.606 44.818 L 234.599 50.527 L 231.746 52.024 C 227.336 54.336 222.567 57.142 221.773 61.2 C 221.157 64.359 222.9 68.391 226.953 73.185 L 229.034 75.646 L 224.112 79.809 Z " fill="rgb(190,25,49)"/></g><g id="g32"><path d=" M 209.913 43.726 C 209.046 43.726 208.191 43.643 207.347 43.479 C 199.912 42.026 195.869 34.315 193.697 30.173 L 192.201 27.318 L 197.91 24.325 L 199.408 27.18 C 201.72 31.588 204.525 36.357 208.583 37.151 C 211.735 37.767 215.773 36.026 220.568 31.971 L 223.029 29.89 L 227.192 34.812 L 224.731 36.895 C 219.317 41.473 214.441 43.726 209.913 43.726 Z " fill="rgb(190,25,49)"/></g></g></g></g></g></g></svg>