<?xml version="1.0" standalone="no"?><!-- Generator: Gravit.io --><svg xmlns="http://www.w3.org/2000/svg" xmlns:xlink="http://www.w3.org/1999/xlink" style="isolation:isolate" viewBox="0 0 256 256" width="256" height="256"><defs><clipPath id="_clipPath_lgYIvxyjq8LxEmWpjZYxrLjH7DkGLeZF"><rect width="256" height="256"/></clipPath></defs><g clip-path="url(#_clipPath_lgYIvxyjq8LxEmWpjZYxrLjH7DkGLeZF)"><g id="1f4a2"><g id="g12"><clipPath id="_clipPath_7zmKsJKDCsIJgVlYXao18QkpT0fF21HD"><path d=" M 28 20 L 98 20 L 98 90 L 28 90 L 28 20 Z " fill="rgb(255,255,255)"/></clipPath><g clip-path="url(#_clipPath_7zmKsJKDCsIJgVlYXao18QkpT0fF21HD)"><g id="g14"><g id="g20"><path d=" M 34.701 65.723 L 31.708 60.013 L 34.563 58.517 C 38.971 56.205 43.74 53.4 44.534 49.34 C 45.151 46.182 43.409 42.15 39.354 37.357 L 37.273 34.896 L 42.195 30.731 L 44.278 33.194 C 49.733 39.645 51.888 45.331 50.862 50.578 C 49.408 58.012 41.697 62.056 37.556 64.228 L 34.701 65.723 Z " fill="rgb(190,25,49)"/></g><g id="g24"><path d=" M 68.397 86.219 L 66.901 83.363 C 64.589 78.955 61.784 74.186 57.724 73.392 C 54.568 72.773 50.534 74.518 45.739 78.572 L 43.278 80.654 L 39.115 75.732 L 41.576 73.65 C 48.027 68.194 53.706 66.035 58.96 67.066 C 66.396 68.518 70.438 76.227 72.61 80.37 L 74.107 83.225 L 68.397 86.219 Z " fill="rgb(190,25,49)"/></g><g id="g28"><path d=" M 84.112 78.809 L 82.031 76.348 C 76.574 69.897 74.421 64.21 75.447 58.964 C 76.898 51.527 84.61 47.486 88.752 45.314 L 91.606 43.818 L 94.599 49.527 L 91.746 51.024 C 87.336 53.336 82.567 56.142 81.773 60.2 C 81.157 63.359 82.9 67.391 86.953 72.185 L 89.034 74.646 L 84.112 78.809 Z " fill="rgb(190,25,49)"/></g><g id="g32"><path d=" M 69.913 42.726 C 69.046 42.726 68.191 42.643 67.347 42.479 C 59.912 41.026 55.869 33.315 53.697 29.173 L 52.201 26.318 L 57.91 23.325 L 59.408 26.18 C 61.72 30.588 64.525 35.357 68.583 36.151 C 71.735 36.767 75.773 35.026 80.568 30.971 L 83.029 28.89 L 87.192 33.812 L 84.731 35.895 C 79.317 40.473 74.441 42.726 69.913 42.726 Z " fill="rgb(190,25,49)"/></g></g></g></g></g></g></svg>