<?xml version="1.0" standalone="no"?><!-- Generator: Gravit.io --><svg xmlns="http://www.w3.org/2000/svg" xmlns:xlink="http://www.w3.org/1999/xlink" style="isolation:isolate" viewBox="0 0 256 256" width="256" height="256"><defs><clipPath id="_clipPath_hvespH34YwtQHdRq2V3289Di3ikB1ukn"><rect width="256" height="256"/></clipPath></defs><g clip-path="url(#_clipPath_hvespH34YwtQHdRq2V3289Di3ikB1ukn)"><g id="1f4a8"><g id="g12"><clipPath id="_clipPath_2WruRyXDCMrpj4mZFOfAAm5Rvvx8p4ke"><path d=" M 161.694 134 L 265.048 161.694 L 237.354 265.048 L 134 237.354 L 161.694 134 Z " fill="rgb(255,255,255)"/></clipPath><g clip-path="url(#_clipPath_2WruRyXDCMrpj4mZFOfAAm5Rvvx8p4ke)"><g id="g14"><g id="g20"><path d=" M 250.667 204.482 C 253.695 193.181 247.564 181.589 236.828 177.57 C 237.329 165.965 229.769 155.156 218.082 152.024 C 204.561 148.401 191.008 155.151 187.386 168.668 C 186.543 171.815 185.948 176.754 187.676 179.78 C 178.67 177.903 165.637 174.702 154.928 170.128 C 154.928 170.128 165.236 184.054 193.793 192.158 C 193.157 192.9 192.063 195.863 191.659 196.793 C 190.982 196.62 190.037 196.384 188.794 196.051 C 167.035 190.221 151.295 183.686 151.295 183.686 C 151.295 183.686 157.098 194.668 190.205 206.081 C 189.007 206.133 187.72 210.937 187.72 210.937 C 165.962 205.106 147.652 197.285 147.652 197.285 C 154.754 207.356 163.001 213.155 168.878 216.307 C 168.745 216.685 168.592 217.049 168.486 217.443 C 166.072 226.454 172.151 233.001 181.161 235.415 C 182.486 235.77 183.814 235.939 185.129 235.971 C 187.645 243.954 194.04 250.527 202.725 252.854 C 216.245 256.476 230.14 248.454 233.762 234.934 C 235.066 230.071 234.843 225.169 233.417 220.7 C 241.504 219.043 248.385 213.001 250.667 204.482 Z " fill="rgb(189,221,244)"/></g></g></g></g></g></g></svg>