<?xml version="1.0" standalone="no"?><!-- Generator: Gravit.io --><svg xmlns="http://www.w3.org/2000/svg" xmlns:xlink="http://www.w3.org/1999/xlink" style="isolation:isolate" viewBox="0 0 256 256" width="256" height="256"><defs><clipPath id="_clipPath_lHtBPGToi3fKYgSelu9CrRBwUhL40G5X"><rect width="256" height="256"/></clipPath></defs><g clip-path="url(#_clipPath_lHtBPGToi3fKYgSelu9CrRBwUhL40G5X)"><g id="1f63c"><g id="g12"><clipPath id="_clipPath_xNTHUfw0uIaPEZKbiO9NyoLwnh5a2nII"><path d=" M 0 0 L 256 0 L 256 256 L 0 256 L 0 0 Z " fill="rgb(255,255,255)"/></clipPath><g clip-path="url(#_clipPath_xNTHUfw0uIaPEZKbiO9NyoLwnh5a2nII)"><g id="g14"><g id="g40"><path d=" M 127.997 138.105 C 148.207 138.105 148.207 141.474 148.207 148.211 C 148.207 154.947 138.102 168.421 127.997 168.421 C 117.891 168.421 107.786 154.947 107.786 148.211 C 107.786 141.474 107.786 138.105 127.997 138.105 Z " fill="rgb(103,117,127)"/></g><g id="g44"><path d=" M 181.895 144.842 C 180.487 144.842 179.173 143.946 178.695 142.538 C 178.109 140.773 179.065 138.867 180.83 138.274 L 241.462 118.07 C 243.234 117.477 245.133 118.434 245.726 120.199 C 246.312 121.964 245.356 123.87 243.591 124.456 L 182.959 144.674 C 182.602 144.788 182.252 144.842 181.895 144.842 Z " fill="rgb(154,170,180)"/></g><g id="g48"><path d=" M 175.151 158.316 C 173.581 158.316 172.18 157.211 171.857 155.608 C 171.486 153.782 172.672 152.003 174.498 151.646 L 241.866 138.173 C 243.618 137.809 245.464 138.981 245.827 140.813 C 246.198 142.639 245.012 144.418 243.187 144.775 L 175.818 158.248 C 175.596 158.296 175.373 158.316 175.151 158.316 Z " fill="rgb(154,170,180)"/></g><g id="g52"><path d=" M 74.105 144.842 C 73.755 144.842 73.398 144.788 73.041 144.674 L 12.409 124.456 C 10.644 123.87 9.688 121.964 10.28 120.199 C 10.867 118.434 12.76 117.477 14.538 118.07 L 75.17 138.274 C 76.935 138.867 77.891 140.773 77.299 142.538 C 76.827 143.946 75.513 144.842 74.105 144.842 Z " fill="rgb(154,170,180)"/></g><g id="g56"><path d=" M 80.845 158.316 C 80.63 158.316 80.408 158.296 80.179 158.248 L 12.81 144.775 C 10.991 144.418 9.805 142.639 10.169 140.813 C 10.533 138.988 12.278 137.789 14.137 138.173 L 81.506 151.646 C 83.325 152.003 84.51 153.782 84.147 155.608 C 83.823 157.211 82.415 158.316 80.845 158.316 Z " fill="rgb(154,170,180)"/></g></g></g></g></g></g></svg>