<?xml version="1.0" standalone="no"?><!-- Generator: Gravit.io --><svg xmlns="http://www.w3.org/2000/svg" xmlns:xlink="http://www.w3.org/1999/xlink" style="isolation:isolate" viewBox="0 0 256 256" width="256" height="256"><defs><clipPath id="_clipPath_H9vpDQGYShw4De5oqFW1NMqyOoeXQSiy"><rect width="256" height="256"/></clipPath></defs><g clip-path="url(#_clipPath_H9vpDQGYShw4De5oqFW1NMqyOoeXQSiy)"><g id="1f637"><g id="g12"><clipPath id="_clipPath_4yCkeNfulEuh6MdyIgTpXICiaJWlN2nF"><path d=" M 0 0 L 256 0 L 256 256 L 0 256 L 0 0 Z " fill="rgb(255,255,255)"/></clipPath><g clip-path="url(#_clipPath_4yCkeNfulEuh6MdyIgTpXICiaJWlN2nF)"><g id="g14"><g id="g32"><path d=" M 13.632 131.134 L 67.372 155.562 L 67.372 186.187 L 25.347 178.541 C 27.948 183.809 30.885 188.862 34.227 193.632 L 67.372 199.661 L 67.372 208.843 C 67.372 216.281 73.401 222.317 80.845 222.317 L 175.161 222.317 C 182.599 222.317 188.635 216.281 188.635 208.843 L 188.635 199.661 L 221.773 193.632 C 225.122 188.862 228.059 183.809 230.653 178.541 L 188.635 186.187 L 188.635 155.562 L 242.368 131.134 C 242.395 130.083 242.53 129.059 242.53 128.001 C 242.53 124.566 242.307 121.184 242.011 117.822 L 188.635 142.088 L 188.635 134.738 C 188.635 127.294 182.599 121.265 175.161 121.265 L 80.845 121.265 C 73.401 121.265 67.372 127.294 67.372 134.738 L 67.372 142.088 L 13.989 117.822 C 13.693 121.184 13.477 124.566 13.477 128.001 C 13.477 129.059 13.605 130.083 13.632 131.134 Z " fill="rgb(245,248,250)"/></g></g></g></g></g></g></svg>