<?xml version="1.0" standalone="no"?><!-- Generator: Gravit.io --><svg xmlns="http://www.w3.org/2000/svg" xmlns:xlink="http://www.w3.org/1999/xlink" style="isolation:isolate" viewBox="0 0 256 256" width="256" height="256"><defs><clipPath id="_clipPath_wmz3LazLEKMrb8Tx2z6NFRovZqJga3Hk"><rect width="256" height="256"/></clipPath></defs><g clip-path="url(#_clipPath_wmz3LazLEKMrb8Tx2z6NFRovZqJga3Hk)"><g id="1f634"><g id="g12"><clipPath id="_clipPath_osBCAAq0nY1rxS15uQcQlY3gWjThtEK9"><path d=" M 0 0 L 256 0 L 256 256 L 0 256 L 0 0 Z " fill="rgb(255,255,255)"/></clipPath><g clip-path="url(#_clipPath_osBCAAq0nY1rxS15uQcQlY3gWjThtEK9)"><g id="g14"><g id="g36"><path d=" M 114.516 41.303 L 101.022 41.303 C 98.112 41.303 95.768 39.444 95.768 36.21 C 95.768 32.983 98.112 31.124 101.022 31.124 L 127.444 31.124 C 128.495 31.124 131.237 31.602 131.237 34.755 C 131.237 36.291 130.92 37.018 130.031 38.231 L 111.687 63.925 L 127.04 63.925 C 129.95 63.925 132.288 65.785 132.288 69.018 C 132.288 72.245 129.95 74.105 127.04 74.105 L 99.971 74.105 C 97.384 74.105 95.202 72.811 95.202 70.143 C 95.202 68.85 95.848 67.644 96.253 66.99 L 114.516 41.303 Z " fill="rgb(42,103,151)"/></g><g id="g40"><path d=" M 165.066 22.319 L 149.302 22.319 C 145.907 22.319 143.171 20.15 143.171 16.377 C 143.171 12.598 145.907 10.429 149.302 10.429 L 180.157 10.429 C 181.396 10.429 184.603 10.995 184.603 14.673 C 184.603 16.465 184.226 17.314 183.181 18.735 L 161.765 48.741 L 179.699 48.741 C 183.094 48.741 185.829 50.91 185.829 54.69 C 185.829 58.462 183.094 60.632 179.699 60.632 L 148.083 60.632 C 145.058 60.632 142.511 59.123 142.511 56.003 C 142.511 54.494 143.266 53.08 143.737 52.332 L 165.066 22.319 Z " fill="rgb(42,103,151)"/></g><g id="g44"><path d=" M 218.961 45.069 L 198.696 45.069 C 194.331 45.069 190.814 42.28 190.814 37.429 C 190.814 32.579 194.331 29.783 198.696 29.783 L 238.37 29.783 C 239.946 29.783 244.069 30.51 244.069 35.246 C 244.069 37.544 243.577 38.642 242.25 40.461 L 214.71 79.036 L 237.763 79.036 C 242.122 79.036 245.645 81.825 245.645 86.676 C 245.645 91.526 242.122 94.315 237.763 94.315 L 197.12 94.315 C 193.24 94.315 189.965 92.375 189.965 88.373 C 189.965 86.433 190.936 84.614 191.542 83.644 L 218.961 45.069 Z " fill="rgb(42,103,151)"/></g></g></g></g></g></g></svg>