<?xml version="1.0" standalone="no"?><!-- Generator: Gravit.io --><svg xmlns="http://www.w3.org/2000/svg" xmlns:xlink="http://www.w3.org/1999/xlink" style="isolation:isolate" viewBox="0 0 256 256" width="256" height="256"><defs><clipPath id="_clipPath_UGKKInwVXEfxuWsm0KEQ4JRhBbPD4LYY"><rect width="256" height="256"/></clipPath></defs><g clip-path="url(#_clipPath_UGKKInwVXEfxuWsm0KEQ4JRhBbPD4LYY)"><g id="1f631"><g id="g12"><clipPath id="_clipPath_S6blkQd4g541t1hbeeym6Yl5f2mbTict"><path d=" M 0 0 L 256 0 L 256 256 L 0 256 L 0 0 Z " fill="rgb(255,255,255)"/></clipPath><g clip-path="url(#_clipPath_S6blkQd4g541t1hbeeym6Yl5f2mbTict)"><g id="g14"><g id="g20"><path d=" M 128 13.474 C 64.755 13.474 13.474 64.755 13.474 128 C 13.474 166.501 32.532 200.482 61.662 221.245 C 62.323 180.278 47.434 134.36 22.407 134.36 C 19.456 134.36 17.064 134.784 15.07 135.525 C 16.997 130.715 21.181 128 29.002 128 C 56.165 128 71.411 182.124 67.766 225.273 C 85.282 236.147 105.869 242.526 128 242.526 C 150.131 242.526 170.732 236.14 188.254 225.267 C 184.583 181.955 199.821 128 227.005 128 C 234.853 128 239.043 130.708 240.957 135.525 C 238.963 134.784 236.564 134.36 233.593 134.36 C 208.539 134.36 193.644 180.17 194.338 221.245 C 223.468 200.482 242.526 166.501 242.526 128 C 242.526 64.755 191.252 13.474 128 13.474 Z " fill="rgb(255,204,77)"/></g><g id="g40"><path d=" M 22.409 134.362 C 19.451 134.362 17.066 134.787 15.072 135.521 C 15.53 134.389 16.13 133.385 16.858 132.489 C 5.014 147.075 31.598 195.061 18.683 242.529 L 59.785 242.529 C 67.35 198.241 51.923 134.362 22.409 134.362 Z " fill="rgb(252,171,64)"/></g><g id="g44"><path d=" M 240.954 135.524 C 238.96 134.783 236.562 134.366 233.591 134.366 C 204.063 134.366 188.636 198.002 196.221 242.526 L 237.323 242.526 C 225.203 197.705 247.866 152.885 240.954 135.524 Z " fill="rgb(252,171,64)"/></g></g></g></g></g></g></svg>