<?xml version="1.0" standalone="no"?><!-- Generator: Gravit.io --><svg xmlns="http://www.w3.org/2000/svg" xmlns:xlink="http://www.w3.org/1999/xlink" style="isolation:isolate" viewBox="0 0 256 256" width="256" height="256"><defs><clipPath id="_clipPath_uVltEyvMgBap3L1P0EsZ6UenlOad3Cdj"><rect width="256" height="256"/></clipPath></defs><g clip-path="url(#_clipPath_uVltEyvMgBap3L1P0EsZ6UenlOad3Cdj)"><g id="1f640"><g id="g12"><clipPath id="_clipPath_1WkHVe2sLHpc7rs06jbnc8rflUZmIKMG"><path d=" M 0 0 L 256 0 L 256 256 L 0 256 L 0 0 Z " fill="rgb(255,255,255)"/></clipPath><g clip-path="url(#_clipPath_1WkHVe2sLHpc7rs06jbnc8rflUZmIKMG)"><g id="g14"><g id="g20"><path d=" M 242.283 87.276 L 242.526 87.58 C 242.526 87.58 249.262 20.211 242.526 13.474 C 236.395 7.344 196.91 17.921 189.83 19.881 C 173.486 11.568 153.161 6.738 127.999 6.738 C 102.878 6.738 82.58 11.581 66.256 19.901 C 59.385 17.995 19.624 7.324 13.473 13.474 C 6.736 20.211 13.473 87.58 13.473 87.58 L 13.79 87.182 C 8.811 104.381 6.736 122.955 6.736 141.474 C 6.736 178.567 29.48 207.617 57.781 226.17 C 58.327 182.94 42.576 134.738 16.195 134.738 C 13.069 134.738 10.542 135.182 8.434 135.97 C 10.468 130.871 14.901 128.001 23.181 128.001 C 51.779 128.001 67.9 184.664 64.289 230.226 C 85.476 242.594 108.941 249.264 127.999 249.264 C 147.065 249.264 170.542 242.648 191.737 230.32 C 188.058 184.577 204.186 128.001 232.831 128.001 C 241.138 128.001 245.571 130.871 247.598 135.97 C 245.49 135.182 242.95 134.738 239.804 134.738 C 213.369 134.738 197.604 182.913 198.231 226.305 C 226.519 207.812 249.262 178.783 249.262 141.474 C 249.262 122.935 247.201 104.408 242.283 87.276 Z " fill="rgb(255,204,77)"/></g><g id="g56"><path d=" M 247.598 135.967 C 245.49 135.186 242.95 134.734 239.804 134.734 C 208.538 134.734 192.201 202.116 200.238 249.26 L 243.758 249.26 C 230.918 201.799 254.915 154.352 247.598 135.967 Z " fill="rgb(252,171,64)"/></g><g id="g60"><path d=" M 16.197 134.737 C 13.071 134.737 10.538 135.181 8.43 135.97 C 8.915 134.764 9.555 133.706 10.323 132.756 C -2.221 148.197 25.925 199.006 12.25 249.263 L 55.776 249.263 C 63.78 202.375 47.45 134.737 16.197 134.737 Z " fill="rgb(252,171,64)"/></g></g></g></g></g></g></svg>