<?xml version="1.0" standalone="no"?><!-- Generator: Gravit.io --><svg xmlns="http://www.w3.org/2000/svg" xmlns:xlink="http://www.w3.org/1999/xlink" style="isolation:isolate" viewBox="0 0 256 256" width="256" height="256"><defs><clipPath id="_clipPath_XCsVxegGT8aXxUhwP47svzcv5LG7hoDy"><rect width="256" height="256"/></clipPath></defs><g clip-path="url(#_clipPath_XCsVxegGT8aXxUhwP47svzcv5LG7hoDy)"><g id="1f49b"><g id="g12"><clipPath id="_clipPath_ChD5pP5LNqgPbuNsxnjFN6edYMG8RNx0"><path d=" M 0 13 L 256 13 L 256 269 L 0 269 L 0 13 Z " fill="rgb(255,255,255)"/></clipPath><g clip-path="url(#_clipPath_ChD5pP5LNqgPbuNsxnjFN6edYMG8RNx0)"><g id="g14"><g id="g20"><path d=" M 248.487 99.457 C 248.487 62.741 218.724 32.978 182.015 32.978 C 159.729 32.978 140.064 43.979 127.999 60.795 C 115.94 43.979 96.268 32.978 73.989 32.978 C 37.274 32.978 7.51 62.741 7.51 99.457 C 7.51 104.658 8.17 109.697 9.302 114.555 C 18.538 171.899 82.296 232.409 127.999 249.022 C 173.695 232.409 237.466 171.899 246.682 114.555 C 247.827 109.697 248.487 104.658 248.487 99.457 Z " fill="rgb(253,203,88)"/></g></g></g></g></g></g></svg>