<?xml version="1.0" standalone="no"?><!-- Generator: Gravit.io --><svg xmlns="http://www.w3.org/2000/svg" xmlns:xlink="http://www.w3.org/1999/xlink" style="isolation:isolate" viewBox="0 0 256 256" width="256" height="256"><defs><clipPath id="_clipPath_yykPjbHfoiDGSSsR10Hiw8GzcIHeqs4D"><rect width="256" height="256"/></clipPath></defs><g clip-path="url(#_clipPath_yykPjbHfoiDGSSsR10Hiw8GzcIHeqs4D)"><g id="1f60a"><g id="g12"><clipPath id="_clipPath_lFWdpa9td4eSjuvRQSWneMx3ZWFDY8V0"><path d=" M 0 0 L 256 0 L 256 256 L 0 256 L 0 0 Z " fill="rgb(255,255,255)"/></clipPath><g clip-path="url(#_clipPath_lFWdpa9td4eSjuvRQSWneMx3ZWFDY8V0)"><g id="g14"><g id="g40"><path d=" M 195.375 107.789 C 192.903 107.796 190.525 106.429 189.339 104.064 C 189.171 103.754 183.909 94.316 168.421 94.316 C 152.933 94.316 147.672 103.754 147.456 104.152 C 145.704 107.392 141.662 108.665 138.395 106.981 C 135.128 105.283 133.8 101.336 135.444 98.041 C 135.795 97.341 144.323 80.842 168.421 80.842 C 192.519 80.842 201.048 97.341 201.391 98.041 C 203.062 101.369 201.708 105.411 198.38 107.082 C 197.416 107.56 196.386 107.789 195.375 107.789 Z " fill="rgb(102,69,0)"/></g></g></g></g></g></g></svg>