<?xml version="1.0" standalone="no"?><!-- Generator: Gravit.io --><svg xmlns="http://www.w3.org/2000/svg" xmlns:xlink="http://www.w3.org/1999/xlink" style="isolation:isolate" viewBox="0 0 256 256" width="256" height="256"><defs><clipPath id="_clipPath_AKWgnbTgaAMjGMMC7XiiQRxleT6myLxJ"><rect width="256" height="256"/></clipPath></defs><g clip-path="url(#_clipPath_AKWgnbTgaAMjGMMC7XiiQRxleT6myLxJ)"><g id="1f60a"><g id="g12"><clipPath id="_clipPath_8xTec8xfTv2Y8EE8162f3zEp1RAMYMI1"><path d=" M 0 0 L 256 0 L 256 256 L 0 256 L 0 0 Z " fill="rgb(255,255,255)"/></clipPath><g clip-path="url(#_clipPath_8xTec8xfTv2Y8EE8162f3zEp1RAMYMI1)"><g id="g14"><g id="g36"><path d=" M 60.625 107.789 C 59.614 107.789 58.584 107.56 57.62 107.082 C 54.292 105.411 52.938 101.363 54.602 98.041 C 54.959 97.334 63.488 80.842 87.579 80.842 C 111.677 80.842 120.199 97.341 120.549 98.041 C 122.22 101.369 120.866 105.411 117.538 107.082 C 114.23 108.726 110.228 107.405 108.537 104.138 C 108.248 103.606 102.946 94.316 87.579 94.316 C 71.97 94.316 66.701 103.97 66.661 104.064 C 65.475 106.429 63.097 107.789 60.625 107.789 Z " fill="rgb(102,69,0)"/></g></g></g></g></g></g></svg>