<?xml version="1.0" standalone="no"?><!-- Generator: Gravit.io --><svg xmlns="http://www.w3.org/2000/svg" xmlns:xlink="http://www.w3.org/1999/xlink" style="isolation:isolate" viewBox="0 0 256 256" width="256" height="256"><defs><clipPath id="_clipPath_liCKLpBleX3va9E2YbMSOQcOAS1lz621"><rect width="256" height="256"/></clipPath></defs><g clip-path="url(#_clipPath_liCKLpBleX3va9E2YbMSOQcOAS1lz621)"><clipPath id="_clipPath_InyGdMr7C8pGGkK9fQDq7E5fwUMH7TfD"><rect x="0" y="-6" width="256" height="256" transform="matrix(1,0,0,1,0,0)" fill="rgb(255,255,255)"/></clipPath><g clip-path="url(#_clipPath_InyGdMr7C8pGGkK9fQDq7E5fwUMH7TfD)"><g id="Group"><g id="1f608"><g id="g12"><clipPath id="_clipPath_Ey8P4Ut2gsB46JTNRVGQg2VJ9LvMqL9J"><path d=" M 0 -6 L 256 -6 L 256 250 L 0 250 L 0 -6 Z " fill="rgb(255,255,255)"/></clipPath><g clip-path="url(#_clipPath_Ey8P4Ut2gsB46JTNRVGQg2VJ9LvMqL9J)"><g id="Group"><g id="g14"><g id="g20"><path d=" M 249.263 14.211 C 249.263 8.76 245.982 3.849 240.95 1.761 C 235.897 -0.328 230.117 0.824 226.264 4.685 C 220.295 10.653 199.336 27.684 181.895 27.684 C 181.888 27.684 181.881 27.684 181.868 27.684 C 165.807 19.108 147.483 14.211 128 14.211 C 108.517 14.211 90.193 19.108 74.132 27.684 C 74.119 27.684 74.112 27.684 74.105 27.684 C 56.724 27.684 36.17 11.071 29.736 4.685 C 25.89 0.831 20.083 -0.328 15.057 1.761 C 10.018 3.849 6.737 8.76 6.737 14.211 C 6.737 30.271 12.093 56.174 29.366 70.739 C 19.335 87.763 13.474 107.543 13.474 128.737 C 13.474 191.989 64.755 243.263 128 243.263 C 191.252 243.263 242.526 191.989 242.526 128.737 C 242.526 107.543 236.665 87.763 226.634 70.739 C 243.907 56.174 249.263 30.271 249.263 14.211 Z " fill="rgb(170,142,214)"/></g></g></g></g></g></g></g></g></g></svg>