<?xml version="1.0" standalone="no"?><!-- Generator: Gravit.io --><svg xmlns="http://www.w3.org/2000/svg" xmlns:xlink="http://www.w3.org/1999/xlink" style="isolation:isolate" viewBox="0 0 256 256" width="256" height="256"><defs><clipPath id="_clipPath_BZn1eHq7c54kk1JFzOJ8TZl6aoWnHfjx"><rect width="256" height="256"/></clipPath></defs><g clip-path="url(#_clipPath_BZn1eHq7c54kk1JFzOJ8TZl6aoWnHfjx)"><g id="1f60b"><g id="g12"><clipPath id="_clipPath_RrvhvyG7QVKPIN5Yt12U2XNoFCXNY4TD"><path d=" M 0 0 L 256 0 L 256 256 L 0 256 L 0 0 Z " fill="rgb(255,255,255)"/></clipPath><g clip-path="url(#_clipPath_RrvhvyG7QVKPIN5Yt12U2XNoFCXNY4TD)"><g id="g14"><g id="g32"><path d=" M 53.888 121.263 C 52.877 121.263 51.847 121.034 50.883 120.556 C 47.555 118.885 46.201 114.836 47.865 111.515 C 48.222 110.808 56.751 94.316 80.842 94.316 C 104.947 94.316 113.462 110.814 113.812 111.515 C 115.483 114.843 114.129 118.885 110.801 120.556 C 107.493 122.213 103.491 120.879 101.8 117.612 C 101.504 117.073 96.202 107.789 80.842 107.789 C 65.233 107.789 59.965 117.443 59.924 117.538 C 58.739 119.902 56.36 121.263 53.888 121.263 Z " fill="rgb(102,69,0)"/></g></g></g></g></g></g></svg>