<svg xmlns="http://www.w3.org/2000/svg" xmlns:xlink="http://www.w3.org/1999/xlink" viewBox="0 0 256 256" width="256" height="256">
  <path d=" M 244.526 128 C 244.526 192.355 192.355 244.526 128 244.526 C 63.645 244.526 11.474 192.355 11.474 128 C 11.474 63.645 63.645 11.474 128 11.474 C 192.355 11.474 244.526 63.645 244.526 128 Z "
    fill="rgb(204,214,221)" />
  <path d=" M 102.105 66.5 C 102.105 79.014 91.967 89.158 79.447 89.158 C 66.927 89.158 56.789 79.014 56.789 66.5 C 56.789 53.986 66.927 43.842 79.447 43.842 C 91.967 43.842 102.105 53.986 102.105 66.5 Z "
    fill="rgb(184,197,205)" />
  <path d=" M 160.368 121.526 C 160.368 132.253 151.674 140.947 140.947 140.947 C 130.22 140.947 121.526 132.253 121.526 121.526 C 121.526 110.799 130.22 102.105 140.947 102.105 C 151.674 102.105 160.368 110.799 160.368 121.526 Z "
    fill="rgb(184,197,205)" />
  <path d=" M 192.737 195.974 C 192.737 208.494 182.599 218.632 170.079 218.632 C 157.559 218.632 147.421 208.494 147.421 195.974 C 147.421 183.454 157.559 173.316 170.079 173.316 C 182.599 173.316 192.737 183.454 192.737 195.974 Z "
    fill="rgb(184,197,205)" />
  <path d=" M 166.842 43.842 C 166.842 50.989 161.042 56.789 153.895 56.789 C 146.748 56.789 140.947 50.989 140.947 43.842 C 140.947 36.695 146.748 30.895 153.895 30.895 C 161.042 30.895 166.842 36.695 166.842 43.842 Z "
    fill="rgb(184,197,205)" />
  <path d=" M 24.421 128 C 24.421 131.58 27.321 134.474 30.895 134.474 C 34.468 134.474 37.368 131.58 37.368 128 C 37.368 124.427 34.468 121.526 30.895 121.526 C 27.321 121.526 24.421 124.427 24.421 128 Z "
    fill="rgb(184,197,205)" />
  <path d=" M 199.211 69.737 C 199.211 73.317 202.104 76.211 205.684 76.211 C 209.264 76.211 212.158 73.317 212.158 69.737 C 212.158 66.163 209.264 63.263 205.684 63.263 C 202.104 63.263 199.211 66.163 199.211 69.737 Z "
    fill="rgb(184,197,205)" />
  <path d=" M 102.105 212.158 C 102.105 215.738 104.999 218.632 108.579 218.632 C 112.159 218.632 115.053 215.738 115.053 212.158 C 115.053 208.578 112.159 205.684 108.579 205.684 C 104.999 205.684 102.105 208.578 102.105 212.158 Z "
    fill="rgb(184,197,205)" />
  <path d=" M 231.579 134.474 C 231.579 141.621 225.779 147.421 218.632 147.421 C 211.485 147.421 205.684 141.621 205.684 134.474 C 205.684 127.327 211.485 121.526 218.632 121.526 C 225.779 121.526 231.579 127.327 231.579 134.474 Z "
    fill="rgb(184,197,205)" />
  <path d=" M 89.158 160.368 C 89.158 167.515 83.357 173.316 76.211 173.316 C 69.064 173.316 63.263 167.515 63.263 160.368 C 63.263 153.221 69.064 147.421 76.211 147.421 C 83.357 147.421 89.158 153.221 89.158 160.368 Z "
    fill="rgb(184,197,205)" />
</svg>