<?xml version="1.0" standalone="no"?><!-- Generator: Gravit.io --><svg xmlns="http://www.w3.org/2000/svg" xmlns:xlink="http://www.w3.org/1999/xlink" style="isolation:isolate" viewBox="0 0 256 256" width="256" height="256"><defs><clipPath id="_clipPath_36EeYgnhtUwgTZh0KMA6GEosEnX6fgJC"><rect width="256" height="256"/></clipPath></defs><g clip-path="url(#_clipPath_36EeYgnhtUwgTZh0KMA6GEosEnX6fgJC)"><g id="1f602"><g id="g12"><clipPath id="_clipPath_VfxrcuXAopjLnKQ4qk10YLbiWAS5eNTm"><path d=" M 0 0 L 256 0 L 256 256 L 0 256 L 0 0 Z " fill="rgb(255,255,255)"/></clipPath><g clip-path="url(#_clipPath_VfxrcuXAopjLnKQ4qk10YLbiWAS5eNTm)"><g id="g14"><g id="g24"><path d=" M 198.447 126.632 C 198.05 125.722 188.349 104.42 168.421 104.42 C 148.5 104.42 138.799 125.722 138.395 126.632 C 137.775 128.026 138.179 129.657 139.365 130.613 C 140.544 131.57 142.235 131.604 143.481 130.708 C 143.562 130.647 151.983 124.631 168.421 124.631 C 184.765 124.631 193.172 130.566 193.361 130.701 C 193.954 131.145 194.668 131.368 195.368 131.368 C 196.109 131.368 196.857 131.118 197.47 130.633 C 198.663 129.677 199.074 128.033 198.447 126.632 Z " fill="rgb(102,69,0)"/></g></g></g></g></g></g></svg>