<?xml version="1.0" standalone="no"?><!-- Generator: Gravit.io --><svg xmlns="http://www.w3.org/2000/svg" xmlns:xlink="http://www.w3.org/1999/xlink" style="isolation:isolate" viewBox="0 0 256 256" width="256" height="256"><defs><clipPath id="_clipPath_YUixFU4rye7lCm1GrNXpMZ5Ujt52Dv8z"><rect width="256" height="256"/></clipPath></defs><g clip-path="url(#_clipPath_YUixFU4rye7lCm1GrNXpMZ5Ujt52Dv8z)"><g id="1f602"><g id="g12"><clipPath id="_clipPath_9sxizi45KZB0GFPt1sjEgGesuDvNklAe"><path d=" M 0 0 L 256 0 L 256 256 L 0 256 L 0 0 Z " fill="rgb(255,255,255)"/></clipPath><g clip-path="url(#_clipPath_9sxizi45KZB0GFPt1sjEgGesuDvNklAe)"><g id="g14"><g id="g28"><path d=" M 117.605 126.632 C 117.201 125.722 107.507 104.42 87.579 104.42 C 67.658 104.42 57.957 125.722 57.553 126.632 C 56.933 128.026 57.337 129.657 58.523 130.613 C 59.709 131.57 61.4 131.604 62.632 130.708 C 62.72 130.647 71.134 124.631 87.579 124.631 C 103.923 124.631 112.33 130.566 112.519 130.701 C 113.112 131.145 113.826 131.368 114.526 131.368 C 115.267 131.368 116.015 131.118 116.628 130.633 C 117.827 129.677 118.225 128.033 117.605 126.632 Z " fill="rgb(102,69,0)"/></g></g></g></g></g></g></svg>