<?xml version="1.0" standalone="no"?><!-- Generator: Gravit.io --><svg xmlns="http://www.w3.org/2000/svg" xmlns:xlink="http://www.w3.org/1999/xlink" style="isolation:isolate" viewBox="0 0 256 256" width="256" height="256"><defs><clipPath id="_clipPath_YwRzZsvUS8MwcRadxIPFkx7OiO49v9dC"><rect width="256" height="256"/></clipPath></defs><g clip-path="url(#_clipPath_YwRzZsvUS8MwcRadxIPFkx7OiO49v9dC)"><g id="1f633"><g id="g12"><clipPath id="_clipPath_xrmm3k7vRomo0PIvTO9fV5LkKPpIBujl"><path d=" M 0 0 L 256 0 L 256 256 L 0 256 L 0 0 Z " fill="rgb(255,255,255)"/></clipPath><g clip-path="url(#_clipPath_xrmm3k7vRomo0PIvTO9fV5LkKPpIBujl)"><g id="g14"><g id="g32"><path d=" M 208.842 117.895 C 208.842 138.355 192.249 154.947 171.789 154.947 C 151.33 154.947 134.737 138.355 134.737 117.895 C 134.737 97.435 151.33 80.842 171.789 80.842 C 192.249 80.842 208.842 97.435 208.842 117.895 Z " fill="rgb(245,248,250)"/></g><g id="g44"><path d=" M 188.632 117.895 C 188.632 127.198 181.093 134.737 171.789 134.737 C 162.486 134.737 154.947 127.198 154.947 117.895 C 154.947 108.598 162.486 101.053 171.789 101.053 C 181.093 101.053 188.632 108.598 188.632 117.895 Z " fill="rgb(102,69,0)"/></g></g></g></g></g></g></svg>