<?xml version="1.0" standalone="no"?><!-- Generator: Gravit.io --><svg xmlns="http://www.w3.org/2000/svg" xmlns:xlink="http://www.w3.org/1999/xlink" style="isolation:isolate" viewBox="0 0 256 256" width="256" height="256"><defs><clipPath id="_clipPath_eSgx4bUXPu85C6h5eC7QgsllcdZTkq9I"><rect width="256" height="256"/></clipPath></defs><g clip-path="url(#_clipPath_eSgx4bUXPu85C6h5eC7QgsllcdZTkq9I)"><g id="1f612"><g id="g12"><clipPath id="_clipPath_V5RFRYFuXBydSKi4ObpaHEvoqghFJv5n"><path d=" M 0 0 L 256 0 L 256 256 L 0 256 L 0 0 Z " fill="rgb(255,255,255)"/></clipPath><g clip-path="url(#_clipPath_V5RFRYFuXBydSKi4ObpaHEvoqghFJv5n)"><g id="g14"><g id="g36"><path d=" M 202.105 114.526 C 202.105 110.808 199.094 107.789 195.368 107.789 L 148.211 107.789 C 144.485 107.789 141.474 110.808 141.474 114.526 C 141.474 118.245 144.485 121.263 148.211 121.263 L 182.515 121.263 C 183.909 125.177 187.608 128 192 128 C 197.578 128 202.105 123.48 202.105 117.895 C 202.105 117.154 202.011 116.433 201.863 115.732 C 201.944 115.328 202.105 114.951 202.105 114.526 Z " fill="rgb(102,69,0)"/></g></g></g></g></g></g></svg>