<?xml version="1.0" standalone="no"?><!-- Generator: Gravit.io --><svg xmlns="http://www.w3.org/2000/svg" xmlns:xlink="http://www.w3.org/1999/xlink" style="isolation:isolate" viewBox="0 0 256 256" width="256" height="256"><defs><clipPath id="_clipPath_QSE779qyzrgG27mXaS2KEjbX5EcLojaq"><rect width="256" height="256"/></clipPath></defs><g clip-path="url(#_clipPath_QSE779qyzrgG27mXaS2KEjbX5EcLojaq)"><g id="1f612"><g id="g12"><clipPath id="_clipPath_GM4GjOrbxMs7ZhTm48iypbx6eaG9MSa2"><path d=" M 0 0 L 256 0 L 256 256 L 0 256 L 0 0 Z " fill="rgb(255,255,255)"/></clipPath><g clip-path="url(#_clipPath_GM4GjOrbxMs7ZhTm48iypbx6eaG9MSa2)"><g id="g14"><g id="g40"><path d=" M 114.526 114.526 C 114.526 110.808 111.508 107.789 107.789 107.789 L 60.632 107.789 C 56.913 107.789 53.895 110.808 53.895 114.526 C 53.895 118.245 56.913 121.263 60.632 121.263 L 94.936 121.263 C 96.33 125.177 100.029 128 104.421 128 C 109.999 128 114.526 123.48 114.526 117.895 C 114.526 117.154 114.432 116.433 114.284 115.732 C 114.358 115.328 114.526 114.951 114.526 114.526 Z " fill="rgb(102,69,0)"/></g></g></g></g></g></g></svg>