<?xml version="1.0" standalone="no"?><!-- Generator: Gravit.io --><svg xmlns="http://www.w3.org/2000/svg" xmlns:xlink="http://www.w3.org/1999/xlink" style="isolation:isolate" viewBox="0 0 256 256" width="256" height="256"><defs><clipPath id="_clipPath_N3veqICtPRFRvYaLVBZXVh11z8nm0at2"><rect width="256" height="256"/></clipPath></defs><g clip-path="url(#_clipPath_N3veqICtPRFRvYaLVBZXVh11z8nm0at2)"><g id="1f634"><g id="g12"><clipPath id="_clipPath_G3cSjH4pdjoPcZ1h2gDsiP7H2KzkaNJy"><path d=" M 0 0 L 256 0 L 256 256 L 0 256 L 0 0 Z " fill="rgb(255,255,255)"/></clipPath><g clip-path="url(#_clipPath_G3cSjH4pdjoPcZ1h2gDsiP7H2KzkaNJy)"><g id="g14"><g id="g32"><path d=" M 190.737 118.648 C 189.551 117.685 187.867 117.651 186.627 118.554 C 186.547 118.621 178.132 124.63 161.688 124.63 C 145.243 124.63 136.822 118.621 136.755 118.567 C 135.528 117.651 133.837 117.671 132.638 118.628 C 131.439 119.584 131.035 121.228 131.655 122.629 C 132.059 123.539 141.76 144.841 161.688 144.841 C 181.615 144.841 191.309 123.539 191.714 122.629 C 192.327 121.235 191.929 119.605 190.737 118.648 Z " fill="rgb(102,69,0)"/></g></g></g></g></g></g></svg>