<?xml version="1.0" standalone="no"?><!-- Generator: Gravit.io --><svg xmlns="http://www.w3.org/2000/svg" xmlns:xlink="http://www.w3.org/1999/xlink" style="isolation:isolate" viewBox="0 0 256 256" width="256" height="256"><defs><clipPath id="_clipPath_91r1QDStIZ5t6IZpVvlEu7pDgPeoRSkV"><rect width="256" height="256"/></clipPath></defs><g clip-path="url(#_clipPath_91r1QDStIZ5t6IZpVvlEu7pDgPeoRSkV)"><g id="1f634"><g id="g12"><clipPath id="_clipPath_LvKCjD87BI05uuIzBHxCSoWcTzTcM6pV"><path d=" M 0 0 L 256 0 L 256 256 L 0 256 L 0 0 Z " fill="rgb(255,255,255)"/></clipPath><g clip-path="url(#_clipPath_LvKCjD87BI05uuIzBHxCSoWcTzTcM6pV)"><g id="g14"><g id="g28"><path d=" M 123.368 118.648 C 122.183 117.685 120.492 117.658 119.259 118.554 C 119.171 118.621 110.764 124.63 94.319 124.63 C 77.875 124.63 69.46 118.621 69.386 118.567 C 68.16 117.651 66.462 117.671 65.27 118.628 C 64.071 119.584 63.667 121.228 64.286 122.629 C 64.697 123.539 74.392 144.841 94.319 144.841 C 114.247 144.841 123.941 123.539 124.345 122.629 C 124.958 121.235 124.554 119.605 123.368 118.648 Z " fill="rgb(102,69,0)"/></g></g></g></g></g></g></svg>