<?xml version="1.0" standalone="no"?><!-- Generator: Gravit.io --><svg xmlns="http://www.w3.org/2000/svg" xmlns:xlink="http://www.w3.org/1999/xlink" style="isolation:isolate" viewBox="0 0 256 256" width="256" height="256"><defs><clipPath id="_clipPath_RxD30krMyV4hrPwdolK0wGJA35zyuonI"><rect width="256" height="256"/></clipPath></defs><g clip-path="url(#_clipPath_RxD30krMyV4hrPwdolK0wGJA35zyuonI)"><g id="1f61c"><g id="g12"><clipPath id="_clipPath_COKfgIg6iYxhMuwHX6dYVBEclBIpZQXU"><path d=" M 256 0 L 0 0 L 0 256 L 256 256 L 256 0 Z " fill="rgb(255,255,255)"/></clipPath><g clip-path="url(#_clipPath_COKfgIg6iYxhMuwHX6dYVBEclBIpZQXU)"><g id="g14"><g id="g24"><path d=" M 145.132 120.017 C 145.536 119.107 155.23 97.805 175.158 97.805 C 195.079 97.805 204.78 119.107 205.184 120.017 C 205.804 121.411 205.4 123.042 204.214 123.998 C 203.021 124.962 201.337 124.989 200.104 124.093 C 200.017 124.032 191.603 118.016 175.158 118.016 C 158.814 118.016 150.407 123.951 150.218 124.086 C 149.625 124.531 148.911 124.753 148.211 124.753 C 147.469 124.753 146.722 124.504 146.109 124.019 C 144.909 123.062 144.512 121.418 145.132 120.017 Z " fill="rgb(102,69,0)"/></g></g></g></g></g></g></svg>