<?xml version="1.0" standalone="no"?><!-- Generator: Gravit.io --><svg xmlns="http://www.w3.org/2000/svg" xmlns:xlink="http://www.w3.org/1999/xlink" style="isolation:isolate" viewBox="0 0 256 256" width="256" height="256"><defs><clipPath id="_clipPath_jyWQpea7U9hH9y1prZGdwLYyJxD44L0w"><rect width="256" height="256"/></clipPath></defs><g clip-path="url(#_clipPath_jyWQpea7U9hH9y1prZGdwLYyJxD44L0w)"><g id="1f61c"><g id="g12"><clipPath id="_clipPath_lM9XP6eQSwvKTWGvhE5huKznceiUFxqW"><path d=" M 0 0 L 256 0 L 256 256 L 0 256 L 0 0 Z " fill="rgb(255,255,255)"/></clipPath><g clip-path="url(#_clipPath_lM9XP6eQSwvKTWGvhE5huKznceiUFxqW)"><g id="g14"><g id="g24"><path d=" M 110.868 120.017 C 110.464 119.107 100.77 97.805 80.842 97.805 C 60.921 97.805 51.22 119.107 50.816 120.017 C 50.196 121.411 50.6 123.042 51.786 123.998 C 52.979 124.962 54.663 124.989 55.896 124.093 C 55.983 124.032 64.397 118.016 80.842 118.016 C 97.186 118.016 105.593 123.951 105.782 124.086 C 106.375 124.531 107.089 124.753 107.789 124.753 C 108.531 124.753 109.278 124.504 109.891 124.019 C 111.091 123.062 111.488 121.418 110.868 120.017 Z " fill="rgb(102,69,0)"/></g></g></g></g></g></g></svg>