<?xml version="1.0" standalone="no"?><!-- Generator: Gravit.io --><svg xmlns="http://www.w3.org/2000/svg" xmlns:xlink="http://www.w3.org/1999/xlink" style="isolation:isolate" viewBox="0 0 256 256" width="256" height="256"><defs><clipPath id="_clipPath_3oilIIvcbESuLi4Qu1FBptkW1jHfDa9t"><rect width="256" height="256"/></clipPath></defs><g clip-path="url(#_clipPath_3oilIIvcbESuLi4Qu1FBptkW1jHfDa9t)"><g id="1f619"><g id="g12"><clipPath id="_clipPath_l0N2MgkIysZfA7scTNR7Tiu5jmZxr2JW"><path d=" M 0 0 L 256 0 L 256 256 L 0 256 L 0 0 Z " fill="rgb(255,255,255)"/></clipPath><g clip-path="url(#_clipPath_l0N2MgkIysZfA7scTNR7Tiu5jmZxr2JW)"><g id="g14"><g id="g32"><path d=" M 181.895 134.737 C 179.072 134.737 176.445 132.952 175.508 130.129 C 174.141 126.093 168.643 114.526 161.684 114.526 C 154.53 114.526 148.958 126.835 147.86 130.129 C 146.681 133.659 142.902 135.572 139.345 134.387 C 135.815 133.214 133.908 129.401 135.087 125.871 C 135.929 123.331 143.865 101.053 161.684 101.053 C 179.503 101.053 187.439 123.331 188.281 125.871 C 189.46 129.401 187.554 133.214 184.024 134.387 C 183.316 134.622 182.602 134.737 181.895 134.737 Z " fill="rgb(102,69,0)"/></g></g></g></g></g></g></svg>