<?xml version="1.0" standalone="no"?><!-- Generator: Gravit.io --><svg xmlns="http://www.w3.org/2000/svg" xmlns:xlink="http://www.w3.org/1999/xlink" style="isolation:isolate" viewBox="0 0 256 256" width="256" height="256"><defs><clipPath id="_clipPath_SK8ibunqGBT9ItZxwcDRlPNuPTADCozg"><rect width="256" height="256"/></clipPath></defs><g clip-path="url(#_clipPath_SK8ibunqGBT9ItZxwcDRlPNuPTADCozg)"><g id="1f619"><g id="g12"><clipPath id="_clipPath_nfjNgehJJyYFf42QoSN2UgQDY2gvnKlM"><path d=" M 0 0 L 256 0 L 256 256 L 0 256 L 0 0 Z " fill="rgb(255,255,255)"/></clipPath><g clip-path="url(#_clipPath_nfjNgehJJyYFf42QoSN2UgQDY2gvnKlM)"><g id="g14"><g id="g28"><path d=" M 114.526 134.737 C 111.704 134.737 109.076 132.952 108.133 130.129 C 106.765 126.093 101.282 114.526 94.316 114.526 C 87.161 114.526 81.597 126.835 80.499 130.129 C 79.32 133.659 75.52 135.572 71.976 134.387 C 68.446 133.214 66.533 129.401 67.712 125.871 C 68.561 123.331 76.497 101.053 94.316 101.053 C 112.135 101.053 120.071 123.331 120.92 125.871 C 122.099 129.401 120.185 133.214 116.655 134.387 C 115.948 134.622 115.234 134.737 114.526 134.737 Z " fill="rgb(102,69,0)"/></g></g></g></g></g></g></svg>