<?xml version="1.0" standalone="no"?><!-- Generator: Gravit.io --><svg xmlns="http://www.w3.org/2000/svg" xmlns:xlink="http://www.w3.org/1999/xlink" style="isolation:isolate" viewBox="0 0 256 256" width="256" height="256"><defs><clipPath id="_clipPath_CIokJ23dupXPtJzMyUzTKXrBtaSTXA9L"><rect width="256" height="256"/></clipPath></defs><g clip-path="url(#_clipPath_CIokJ23dupXPtJzMyUzTKXrBtaSTXA9L)"><g id="1f601"><g id="g12"><clipPath id="_clipPath_XorqpTUrC3ZNo3DAgVQJIINrqcpgN2Jp"><path d=" M 0 0 L 256 0 L 256 256 L 0 256 L 0 0 Z " fill="rgb(255,255,255)"/></clipPath><g clip-path="url(#_clipPath_XorqpTUrC3ZNo3DAgVQJIINrqcpgN2Jp)"><g id="g14"><g id="g44"><path d=" M 181.895 121.263 C 179.072 121.263 176.445 119.478 175.508 116.655 C 174.141 112.62 168.643 101.053 161.684 101.053 C 154.53 101.053 148.958 113.361 147.86 116.655 C 146.681 120.185 142.902 122.099 139.345 120.913 C 135.815 119.741 133.908 115.928 135.087 112.397 C 135.929 109.858 143.865 87.579 161.684 87.579 C 179.503 87.579 187.439 109.858 188.281 112.397 C 189.46 115.928 187.554 119.741 184.024 120.913 C 183.316 121.149 182.602 121.263 181.895 121.263 Z " fill="rgb(102,69,0)"/></g></g></g></g></g></g></svg>