<?xml version="1.0" standalone="no"?><!-- Generator: Gravit.io --><svg xmlns="http://www.w3.org/2000/svg" xmlns:xlink="http://www.w3.org/1999/xlink" style="isolation:isolate" viewBox="0 0 256 256" width="256" height="256"><defs><clipPath id="_clipPath_95G4jWlIgYeAc8ujiVpGGhARVGhWTohD"><rect width="256" height="256"/></clipPath></defs><g clip-path="url(#_clipPath_95G4jWlIgYeAc8ujiVpGGhARVGhWTohD)"><g id="1f601"><g id="g12"><clipPath id="_clipPath_Q1F9PLDmBIvcu88eNL2O9XKZPHrpQpvk"><path d=" M 0 0 L 256 0 L 256 256 L 0 256 L 0 0 Z " fill="rgb(255,255,255)"/></clipPath><g clip-path="url(#_clipPath_Q1F9PLDmBIvcu88eNL2O9XKZPHrpQpvk)"><g id="g14"><g id="g40"><path d=" M 114.526 121.263 C 111.704 121.263 109.076 119.478 108.133 116.655 C 106.765 112.62 101.282 101.053 94.316 101.053 C 87.161 101.053 81.597 113.361 80.499 116.655 C 79.32 120.185 75.52 122.099 71.976 120.913 C 68.446 119.741 66.533 115.928 67.712 112.397 C 68.561 109.858 76.497 87.579 94.316 87.579 C 112.135 87.579 120.071 109.858 120.92 112.397 C 122.099 115.928 120.185 119.741 116.655 120.913 C 115.948 121.149 115.234 121.263 114.526 121.263 Z " fill="rgb(102,69,0)"/></g></g></g></g></g></g></svg>