<?xml version="1.0" standalone="no"?><!-- Generator: Gravit.io --><svg xmlns="http://www.w3.org/2000/svg" xmlns:xlink="http://www.w3.org/1999/xlink" style="isolation:isolate" viewBox="0 0 256 256" width="256" height="256"><defs><clipPath id="_clipPath_6MBHYOAQV7WqojTYQLHpNzaNYZ4Bhz5o"><rect width="256" height="256"/></clipPath></defs><g clip-path="url(#_clipPath_6MBHYOAQV7WqojTYQLHpNzaNYZ4Bhz5o)"><g id="1f623"><g id="g12"><clipPath id="_clipPath_ls2CmvLUTRQ3EgksISviiuL0a3wwqY5M"><path d=" M 0 0 L 256 0 L 256 256 L 0 256 L 0 0 Z " fill="rgb(255,255,255)"/></clipPath><g clip-path="url(#_clipPath_ls2CmvLUTRQ3EgksISviiuL0a3wwqY5M)"><g id="g14"><g id="g36"><path d=" M 208.835 161.677 C 207.434 161.677 206.019 161.246 204.807 160.344 C 204.551 160.155 179.133 141.474 148.211 141.474 C 145.489 141.474 143.023 139.837 141.986 137.317 C 140.941 134.797 141.521 131.901 143.448 129.974 C 165.383 108.045 200.616 107.789 202.105 107.789 C 205.824 107.789 208.829 110.801 208.835 114.52 C 208.842 118.232 205.831 121.256 202.119 121.263 C 201.876 121.263 183.37 121.445 166.696 129.805 C 193.004 134.858 211.921 148.837 212.884 149.558 C 215.855 151.788 216.461 155.998 214.238 158.983 C 212.911 160.741 210.89 161.677 208.835 161.677 Z " fill="rgb(102,69,0)"/></g></g></g></g></g></g></svg>