<?xml version="1.0" standalone="no"?><!-- Generator: Gravit.io --><svg xmlns="http://www.w3.org/2000/svg" xmlns:xlink="http://www.w3.org/1999/xlink" style="isolation:isolate" viewBox="0 0 256 256" width="256" height="256"><defs><clipPath id="_clipPath_MOgIw3E3Rs8igLGggJHjBTboBCZq2WZC"><rect width="256" height="256"/></clipPath></defs><g clip-path="url(#_clipPath_MOgIw3E3Rs8igLGggJHjBTboBCZq2WZC)"><g id="1f623"><g id="g12"><clipPath id="_clipPath_FmdHAgmaw0pAigQMnvZYfeVowFU4cpUB"><path d=" M 0 0 L 256 0 L 256 256 L 0 256 L 0 0 Z " fill="rgb(255,255,255)"/></clipPath><g clip-path="url(#_clipPath_FmdHAgmaw0pAigQMnvZYfeVowFU4cpUB)"><g id="g14"><g id="g32"><path d=" M 47.165 161.684 C 45.117 161.684 43.096 160.755 41.768 158.989 C 39.539 156.012 40.138 151.788 43.116 149.558 C 44.079 148.837 62.996 134.858 89.304 129.805 C 72.63 121.445 54.124 121.263 53.888 121.263 C 50.169 121.256 47.158 118.232 47.165 114.52 C 47.165 110.801 50.176 107.789 53.895 107.789 C 55.384 107.789 90.624 108.045 112.552 129.974 C 114.479 131.901 115.059 134.797 114.014 137.317 C 112.97 139.837 110.511 141.474 107.789 141.474 C 76.712 141.474 51.449 160.155 51.2 160.337 C 49.987 161.246 48.566 161.684 47.165 161.684 Z " fill="rgb(102,69,0)"/></g></g></g></g></g></g></svg>