<?xml version="1.0" standalone="no"?><!-- Generator: Gravit.io --><svg xmlns="http://www.w3.org/2000/svg" xmlns:xlink="http://www.w3.org/1999/xlink" style="isolation:isolate" viewBox="0 0 256 256" width="256" height="256"><defs><clipPath id="_clipPath_sp0ERRY14rnvQpybwX20VH4P5JGS5uZV"><rect width="256" height="256"/></clipPath></defs><g clip-path="url(#_clipPath_sp0ERRY14rnvQpybwX20VH4P5JGS5uZV)"><g id="1f31e"><g id="g12"><clipPath id="_clipPath_c8kOjNVR8M5Xrt0PBbeM6QoyQWKlRNVB"><path d=" M -6 -6 L 262 -6 L 262 262 L -6 262 L -6 -6 Z " fill="rgb(255,255,255)"/></clipPath><g clip-path="url(#_clipPath_c8kOjNVR8M5Xrt0PBbeM6QoyQWKlRNVB)"><g id="g14"><g id="g20"><path d=" M 128 253.535 C 125.249 253.535 122.746 251.998 121.505 249.551 L 108.81 224.486 L 87.483 242.794 C 86.136 243.93 84.45 244.536 82.743 244.536 C 81.805 244.536 80.86 244.353 79.965 243.986 C 77.433 242.935 75.691 240.544 75.493 237.822 L 73.349 209.788 L 46.634 218.54 C 45.893 218.78 45.132 218.9 44.37 218.9 C 42.473 218.9 40.618 218.152 39.221 216.763 C 37.289 214.838 36.605 211.96 37.458 209.351 L 46.204 182.635 L 18.191 180.512 C 15.454 180.294 13.07 178.573 12.019 176.048 C 10.976 173.495 11.434 170.596 13.218 168.516 L 31.513 147.189 L 6.455 134.494 C 4.001 133.253 2.463 130.735 2.463 127.999 C 2.463 125.262 4.001 122.751 6.455 121.503 L 31.513 108.808 L 13.218 87.488 C 11.441 85.401 10.976 82.495 12.019 79.963 C 13.07 77.431 15.454 75.696 18.191 75.492 L 46.204 73.348 L 37.458 46.639 C 36.605 44.03 37.289 41.167 39.221 39.22 C 40.618 37.838 42.473 37.097 44.37 37.097 C 45.132 37.097 45.893 37.217 46.634 37.457 L 73.349 46.202 L 75.493 18.189 C 75.691 15.453 77.433 13.069 79.965 12.018 C 80.86 11.651 81.805 11.468 82.743 11.468 C 84.45 11.468 86.136 12.067 87.483 13.217 L 108.81 31.519 L 121.505 6.454 C 122.746 4.006 125.249 2.462 128 2.462 C 130.736 2.462 133.254 4.006 134.488 6.446 L 147.197 31.519 L 168.524 13.217 C 169.871 12.067 171.564 11.468 173.257 11.468 C 174.209 11.468 175.147 11.651 176.05 12.018 C 178.581 13.069 180.302 15.46 180.521 18.189 L 182.658 46.202 L 209.352 37.457 C 210.1 37.217 210.868 37.097 211.616 37.097 C 213.52 37.097 215.389 37.838 216.764 39.22 C 218.711 41.167 219.395 44.03 218.542 46.639 L 209.789 73.348 L 237.824 75.492 C 240.546 75.696 242.937 77.431 243.981 79.963 C 245.031 82.495 244.573 85.401 242.789 87.488 L 224.487 108.808 L 249.545 121.503 C 251.999 122.751 253.537 125.262 253.537 127.999 C 253.537 130.735 251.999 133.246 249.545 134.494 L 224.487 147.189 L 242.789 168.516 C 244.573 170.596 245.031 173.495 243.981 176.048 C 242.937 178.573 240.546 180.294 237.802 180.512 L 209.789 182.635 L 218.542 209.351 C 219.395 211.967 218.711 214.838 216.764 216.763 C 215.389 218.152 213.52 218.9 211.616 218.9 C 210.868 218.9 210.1 218.78 209.352 218.54 L 182.658 209.788 L 180.521 237.808 C 180.302 240.544 178.581 242.935 176.05 243.986 C 175.147 244.353 174.209 244.536 173.257 244.536 C 171.564 244.536 169.871 243.93 168.524 242.794 L 147.197 224.486 L 134.488 249.551 C 133.254 251.998 130.736 253.535 128 253.535 Z " fill="rgb(244,144,12)"/></g><g id="g24"><path d=" M 222.844 127.999 C 222.844 180.374 180.376 222.842 128 222.842 C 75.624 222.842 33.156 180.374 33.156 127.999 C 33.156 75.616 75.624 33.155 128 33.155 C 180.376 33.155 222.844 75.616 222.844 127.999 Z " fill="rgb(255,204,77)"/></g></g></g></g></g></g></svg>