<?xml version="1.0" standalone="no"?><!-- Generator: Gravit.io --><svg xmlns="http://www.w3.org/2000/svg" xmlns:xlink="http://www.w3.org/1999/xlink" style="isolation:isolate" viewBox="0 0 256 256" width="256" height="256"><defs><clipPath id="_clipPath_Ji79U8bcBkSFkjxF8U5PQCtHNj17xn0y"><rect width="256" height="256"/></clipPath></defs><g clip-path="url(#_clipPath_Ji79U8bcBkSFkjxF8U5PQCtHNj17xn0y)"><g id="1f4db"><g id="g12"><clipPath id="_clipPath_dkMDrMCA2VSeVXBRKBYmSqfH1zlsuB70"><path d=" M 0 0 L 256 0 L 256 256 L 0 256 L 0 0 Z " fill="rgb(255,255,255)"/></clipPath><g clip-path="url(#_clipPath_dkMDrMCA2VSeVXBRKBYmSqfH1zlsuB70)"><g id="g14"><g id="g20"><path d=" M 197.408 24.092 C 194.383 21.957 190.55 22.927 188.899 26.241 L 171.424 61.34 C 169.766 64.655 166.735 64.85 164.68 61.771 L 131.744 12.532 C 129.682 9.453 126.314 9.453 124.252 12.532 L 91.323 61.771 C 89.261 64.85 86.23 64.655 84.572 61.34 L 67.104 26.241 C 65.453 22.927 61.62 21.957 58.595 24.092 C 58.595 24.092 6.735 60.633 6.735 141.475 C 6.735 193.564 61.027 249.265 127.998 249.265 C 194.976 249.265 249.261 193.564 249.261 141.475 C 249.261 60.633 197.408 24.092 197.408 24.092 Z " fill="rgb(221,46,68)"/></g></g></g></g></g></g></svg>