<?xml version="1.0" standalone="no"?><!-- Generator: Gravit.io --><svg xmlns="http://www.w3.org/2000/svg" xmlns:xlink="http://www.w3.org/1999/xlink" style="isolation:isolate" viewBox="0 0 256 256" width="256" height="256"><defs><clipPath id="_clipPath_dxBRqZrq9tBamygw84ACjXoeSdKxP3Y4"><rect width="256" height="256"/></clipPath></defs><g clip-path="url(#_clipPath_dxBRqZrq9tBamygw84ACjXoeSdKxP3Y4)"><g id="1f4bf"><g id="g12"><clipPath id="_clipPath_OGXOZDAXutN26xsUWOnHzcAYQtutMMgI"><path d=" M 0 0 L 256 0 L 256 256 L 0 256 L 0 0 Z " fill="rgb(255,255,255)"/></clipPath><g clip-path="url(#_clipPath_OGXOZDAXutN26xsUWOnHzcAYQtutMMgI)"><g id="g14"><g id="g20"><path d=" M 128 107.789 C 116.837 107.789 107.789 116.837 107.789 128 C 107.789 139.163 116.837 148.211 128 148.211 C 139.163 148.211 148.211 139.163 148.211 128 C 148.211 116.837 139.163 107.789 128 107.789 Z  M 249.263 128 C 249.263 194.971 194.971 249.263 128 249.263 C 61.029 249.263 6.737 194.971 6.737 128 C 6.737 61.029 61.029 6.737 128 6.737 C 194.971 6.737 249.263 61.029 249.263 128 Z " fill="rgb(136,153,166)"/></g></g></g></g><g id="g24"><clipPath id="_clipPath_SskTeG8gAWe8csUyZnqGJnsOtrM8gUP8"><path d=" M 20.211 128 C 20.211 187.527 68.473 235.789 128 235.789 L 128 235.789 C 187.527 235.789 235.789 187.527 235.789 128 L 235.789 128 C 235.789 68.473 187.527 20.211 128 20.211 L 128 20.211 C 68.473 20.211 20.211 68.473 20.211 128 Z  M 95.899 128 C 95.899 110.269 110.269 95.906 128 95.906 L 128 95.906 C 145.725 95.906 160.101 110.269 160.101 128 L 160.101 128 C 160.101 145.725 145.725 160.108 128 160.108 L 128 160.108 C 110.269 160.108 95.899 145.725 95.899 128 Z " fill="rgb(255,255,255)"/></clipPath><g clip-path="url(#_clipPath_SskTeG8gAWe8csUyZnqGJnsOtrM8gUP8)"><g id="g26"><g id="g32"><path d=" M 128 128 L 6.737 114.526 L 6.737 6.737 L 114.526 6.737 L 128 128 Z " fill="rgb(204,214,221)"/></g><g id="g36"><path d=" M 128 128 L 249.263 141.474 L 249.263 249.263 L 141.474 249.263 L 128 128 Z " fill="rgb(204,214,221)"/></g><g id="g40"><path d=" M 128.003 128.003 L 142.319 256.003 L 249.267 249.267 L 128.003 128.003 Z " fill="rgb(245,248,250)"/></g><g id="g44"><path d=" M 128.003 128.003 L 6.74 6.74 L 114.53 0.003 L 128.003 128.003 Z " fill="rgb(245,248,250)"/></g></g></g></g></g></g></svg>