<?xml version="1.0" standalone="no"?><!-- Generator: Gravit.io --><svg xmlns="http://www.w3.org/2000/svg" xmlns:xlink="http://www.w3.org/1999/xlink" style="isolation:isolate" viewBox="0 0 256 256" width="256" height="256"><defs><clipPath id="_clipPath_CyCtEDEnq1N35xiuV64EHCfdOI0DKmks"><rect width="256" height="256"/></clipPath></defs><g clip-path="url(#_clipPath_CyCtEDEnq1N35xiuV64EHCfdOI0DKmks)"><g id="1f6ab"><g id="g12"><clipPath id="_clipPath_Tp6ii1lWFjY13zOzVjQaRvoLGyZ2H9EK"><path d=" M 0 0 L 256 0 L 256 256 L 0 256 L 0 0 Z " fill="rgb(255,255,255)"/></clipPath><g clip-path="url(#_clipPath_Tp6ii1lWFjY13zOzVjQaRvoLGyZ2H9EK)"><g id="g14"><g id="g20"><path d=" M 40.421 128 C 40.421 110.72 45.494 94.653 54.137 81.085 L 174.922 201.869 C 161.347 210.506 145.28 215.579 128 215.579 C 79.636 215.579 40.421 176.371 40.421 128 Z  M 215.579 128 C 215.579 145.28 210.506 161.347 201.869 174.922 L 81.085 54.137 C 94.653 45.494 110.72 40.421 128 40.421 C 176.371 40.421 215.579 79.636 215.579 128 Z  M 128 6.737 C 61.029 6.737 6.737 61.029 6.737 128 C 6.737 194.971 61.029 249.263 128 249.263 C 194.971 249.263 249.263 194.971 249.263 128 C 249.263 61.029 194.971 6.737 128 6.737 Z " fill="rgb(221,46,68)"/></g></g></g></g></g></g></svg>