<?xml version="1.0" standalone="no"?><!-- Generator: Gravit.io --><svg xmlns="http://www.w3.org/2000/svg" xmlns:xlink="http://www.w3.org/1999/xlink" style="isolation:isolate" viewBox="0 0 256 256" width="256" height="256"><defs><clipPath id="_clipPath_kJ1Unb3VRvPnFxTMRnxgk7fNEtF3klwX"><rect width="256" height="256"/></clipPath></defs><g clip-path="url(#_clipPath_kJ1Unb3VRvPnFxTMRnxgk7fNEtF3klwX)"><g id="1f618"><g id="g12"><clipPath id="_clipPath_faRFfRnNcDKzEiIdl2cwtVxSBtZ97qeY"><path d=" M 256 0 L 0 0 L 0 256 L 256 256 L 256 0 Z " fill="rgb(255,255,255)"/></clipPath><g clip-path="url(#_clipPath_faRFfRnNcDKzEiIdl2cwtVxSBtZ97qeY)"><g id="g14"><g id="g44"><path d=" M 10.75 190.125 C 5.771 179.912 10.009 167.577 20.215 162.598 C 26.427 159.574 33.393 159.964 39.031 163.003 C 40.109 156.69 44.084 150.95 50.282 147.926 C 60.508 142.94 72.837 147.191 77.815 157.404 C 78.529 158.846 79.028 160.342 79.371 161.844 C 84.586 179.057 75.06 204.562 64.598 215.388 C 49.628 216.965 23.658 208.793 13.297 194.093 C 12.32 192.887 11.457 191.574 10.75 190.125 Z " fill="rgb(231,90,112)"/></g></g></g></g></g></g></svg>