<?xml version="1.0" standalone="no"?><!-- Generator: Gravit.io --><svg xmlns="http://www.w3.org/2000/svg" xmlns:xlink="http://www.w3.org/1999/xlink" style="isolation:isolate" viewBox="0 0 256 256" width="256" height="256"><defs><clipPath id="_clipPath_ZJFZXxe9ikGS1NdxTKY9Ic0gGAEwnVuP"><rect width="256" height="256"/></clipPath></defs><g clip-path="url(#_clipPath_ZJFZXxe9ikGS1NdxTKY9Ic0gGAEwnVuP)"><g id="1f60d"><g id="g12"><clipPath id="_clipPath_R2GdGSF0ZaHIAnEtt8WEU3aWZt8USscQ"><path d=" M 0 0 L 256 0 L 256 256 L 0 256 L 0 0 Z " fill="rgb(255,255,255)"/></clipPath><g clip-path="url(#_clipPath_R2GdGSF0ZaHIAnEtt8WEU3aWZt8USscQ)"><g id="g14"><g id="g28"><path d=" M 118.905 28.839 C 113.118 12.462 95.164 3.866 78.78 9.639 C 68.836 13.149 61.796 21.166 59.054 30.557 C 51.031 24.965 40.521 23.146 30.598 26.643 C 14.221 32.423 5.618 50.39 11.398 66.767 C 12.22 69.092 13.311 71.234 14.578 73.221 C 27.721 97.353 65.697 114.316 88.697 114.525 C 106.455 99.926 125.385 62.894 120.474 35.859 C 120.218 33.514 119.713 31.157 118.905 28.839 Z " fill="rgb(231,90,112)"/></g><g id="g32"><path d=" M 137.092 28.839 C 142.879 12.462 160.839 3.866 177.217 9.639 C 187.167 13.149 194.2 21.166 196.949 30.557 C 204.972 24.965 215.482 23.146 225.405 26.643 C 241.776 32.423 250.379 50.39 244.605 66.767 C 243.777 69.092 242.692 71.234 241.419 73.221 C 228.275 97.353 190.3 114.316 167.3 114.525 C 149.542 99.926 130.618 62.894 135.529 35.859 C 135.785 33.514 136.29 31.157 137.092 28.839 Z " fill="rgb(231,90,112)"/></g></g></g></g></g></g></svg>