<?xml version="1.0" standalone="no"?><!-- Generator: Gravit.io --><svg xmlns="http://www.w3.org/2000/svg" xmlns:xlink="http://www.w3.org/1999/xlink" style="isolation:isolate" viewBox="0 0 256 256" width="256" height="256"><defs><clipPath id="_clipPath_LhnMAIuWw9RFR4EXMoHlfl1ilkdoJURD"><rect width="256" height="256"/></clipPath></defs><g clip-path="url(#_clipPath_LhnMAIuWw9RFR4EXMoHlfl1ilkdoJURD)"><g id="1f62d"><g id="g12"><clipPath id="_clipPath_As87VreLQeiHdEasPiEwgZi2n93MFONd"><path d=" M 0 0 L 256 0 L 256 256 L 0 256 L 0 0 Z " fill="rgb(255,255,255)"/></clipPath><g clip-path="url(#_clipPath_As87VreLQeiHdEasPiEwgZi2n93MFONd)"><g id="g14"><g id="g36"><path d=" M 60.632 242.526 L 87.579 242.216 L 87.579 114.533 L 60.632 114.533 L 60.632 242.526 Z  M 168.421 114.526 L 195.368 114.526 L 195.368 242.526 L 168.421 242.216 L 168.421 114.526 Z " fill="rgb(93,173,236)"/></g><g id="g48"><path d=" M 249.263 235.789 C 249.263 243.227 194.971 249.263 128 249.263 C 61.029 249.263 6.737 243.227 6.737 235.789 C 6.737 228.352 61.029 222.316 128 222.316 C 194.971 222.316 249.263 228.352 249.263 235.789 Z " fill="rgb(93,173,236)"/></g></g></g></g></g></g></svg>