<?xml version="1.0" standalone="no"?><!-- Generator: Gravit.io --><svg xmlns="http://www.w3.org/2000/svg" xmlns:xlink="http://www.w3.org/1999/xlink" style="isolation:isolate" viewBox="0 0 256 256" width="256" height="256"><defs><clipPath id="_clipPath_DZ0jc5nwQIik4BsxH9CnmctgVTszADXd"><rect width="256" height="256"/></clipPath></defs><g clip-path="url(#_clipPath_DZ0jc5nwQIik4BsxH9CnmctgVTszADXd)"><g id="1f624"><g id="g12"><clipPath id="_clipPath_QZwbmjqt7hVqYfWcq0AveJhlEEJkw7eY"><path d=" M 0 0 L 256 0 L 256 256 L 0 256 L 0 0 Z " fill="rgb(255,255,255)"/></clipPath><g clip-path="url(#_clipPath_QZwbmjqt7hVqYfWcq0AveJhlEEJkw7eY)"><g id="g14"><g id="g44"><path d=" M 110.424 142.013 C 107.372 140.7 103.829 141.831 102.077 144.641 L 68.393 198.535 C 67.093 200.61 67.026 203.231 68.211 205.367 C 69.404 207.516 71.654 208.843 74.106 208.843 L 94.316 208.843 C 97.409 208.843 100.103 206.734 100.851 203.736 L 114.325 149.842 C 115.127 146.635 113.476 143.307 110.424 142.013 Z " fill="rgb(245,248,250)"/></g><g id="g48"><path d=" M 187.606 198.533 L 153.921 144.638 C 152.156 141.822 148.619 140.704 145.581 142.011 C 142.529 143.311 140.872 146.632 141.681 149.839 L 155.154 203.734 C 155.902 206.738 158.59 208.84 161.682 208.84 L 181.893 208.84 C 184.345 208.84 186.595 207.513 187.787 205.371 C 188.973 203.228 188.906 200.614 187.606 198.533 Z " fill="rgb(245,248,250)"/></g><g id="g52"><path d=" M 222.197 210.039 C 222.217 209.635 222.318 209.251 222.318 208.84 C 222.318 197.684 213.264 188.63 202.108 188.63 C 195.182 188.63 189.092 192.119 185.448 197.421 C 182.275 196.114 178.805 195.366 175.161 195.366 C 160.279 195.366 148.213 207.432 148.213 222.314 C 148.213 237.195 160.279 249.261 175.161 249.261 C 184.356 249.261 192.461 244.64 197.325 237.6 C 200.552 244.471 207.477 249.261 215.582 249.261 C 226.745 249.261 235.792 240.214 235.792 229.051 C 235.792 220.219 230.093 212.788 222.197 210.039 Z " fill="rgb(225,232,237)"/></g><g id="g56"><path d=" M 80.842 195.368 C 77.191 195.368 73.728 196.109 70.555 197.423 C 66.91 192.121 60.813 188.632 53.895 188.632 C 42.739 188.632 33.684 197.686 33.684 208.842 C 33.684 209.253 33.779 209.637 33.805 210.041 C 25.91 212.79 20.211 220.214 20.211 229.053 C 20.211 240.216 29.258 249.263 40.421 249.263 C 48.519 249.263 55.451 244.473 58.671 237.602 C 63.542 244.635 71.64 249.263 80.842 249.263 C 95.724 249.263 107.789 237.197 107.789 222.316 C 107.789 207.434 95.724 195.368 80.842 195.368 Z " fill="rgb(225,232,237)"/></g></g></g></g></g></g></svg>