<?xml version="1.0" standalone="no"?><!-- Generator: Gravit.io --><svg xmlns="http://www.w3.org/2000/svg" xmlns:xlink="http://www.w3.org/1999/xlink" style="isolation:isolate" viewBox="0 0 256 256" width="256" height="256"><defs><clipPath id="_clipPath_ajfQx63qLTgEUf82hxYgxowrWdK4VqGK"><rect width="256" height="256"/></clipPath></defs><g clip-path="url(#_clipPath_ajfQx63qLTgEUf82hxYgxowrWdK4VqGK)"><g id="1f4a8"><g id="g12"><clipPath id="_clipPath_Lgxi1L9O248u3iVOxN94pW5lpVBIl4Xt"><path d=" M 94.354 134 L -9 161.694 L 18.694 265.048 L 122.048 237.354 L 94.354 134 Z " fill="rgb(255,255,255)"/></clipPath><g clip-path="url(#_clipPath_Lgxi1L9O248u3iVOxN94pW5lpVBIl4Xt)"><g id="g14"><g id="g20"><path d=" M 5.38 204.482 C 2.352 193.181 8.484 181.589 19.219 177.57 C 18.719 165.965 26.279 155.156 37.966 152.024 C 51.486 148.401 65.04 155.151 68.662 168.668 C 69.505 171.815 70.1 176.754 68.371 179.78 C 77.378 177.903 90.411 174.702 101.119 170.128 C 101.119 170.128 90.812 184.054 62.255 192.158 C 62.891 192.9 63.985 195.863 64.389 196.793 C 65.065 196.62 66.011 196.384 67.254 196.051 C 89.013 190.221 104.752 183.686 104.752 183.686 C 104.752 183.686 98.95 194.668 65.843 206.081 C 67.04 206.133 68.327 210.937 68.327 210.937 C 90.086 205.106 108.396 197.285 108.396 197.285 C 101.294 207.356 93.047 213.155 87.169 216.307 C 87.303 216.685 87.456 217.049 87.561 217.443 C 89.976 226.454 83.897 233.001 74.886 235.415 C 73.562 235.77 72.234 235.939 70.919 235.971 C 68.403 243.954 62.007 250.527 53.323 252.854 C 39.802 256.476 25.908 248.454 22.285 234.934 C 20.982 230.071 21.205 225.169 22.631 220.7 C 14.544 219.043 7.663 213.001 5.38 204.482 Z " fill="rgb(189,221,244)"/></g></g></g></g></g></g></svg>