<?xml version="1.0" standalone="no"?><!-- Generator: Gravit.io --><svg xmlns="http://www.w3.org/2000/svg" xmlns:xlink="http://www.w3.org/1999/xlink" style="isolation:isolate" viewBox="0 0 256 256" width="256" height="256"><defs><clipPath id="_clipPath_HAynnBiNs1ZPAtIDjOZ0RduwMB2IpX9s"><rect width="256" height="256"/></clipPath></defs><g clip-path="url(#_clipPath_HAynnBiNs1ZPAtIDjOZ0RduwMB2IpX9s)"><g id="1f4a6"><g id="g12"><clipPath id="_clipPath_5rj7w5b8nlc3jCnLrsJ4rVhCALt4R7VL"><path d=" M 136 165.882 L 232.593 140 L 258.474 236.593 L 161.882 262.474 L 136 165.882 Z " fill="rgb(255,255,255)"/></clipPath><g clip-path="url(#_clipPath_5rj7w5b8nlc3jCnLrsJ4rVhCALt4R7VL)"><g id="g14"><g id="g20"><path d=" M 197.836 154.102 L 164.026 180.233 L 202.523 196.434 C 210.728 200.295 220.733 199.556 228.389 193.639 C 239.281 185.222 241.265 169.546 232.827 158.632 C 224.394 147.71 208.723 145.684 197.836 154.102 Z " fill="rgb(93,173,236)"/></g><g id="g24"><path d=" M 184.72 206.448 L 151.438 192.486 L 155.598 227.459 C 156.185 235.08 160.893 242.12 168.431 245.277 C 179.152 249.774 191.49 244.729 195.99 234.01 C 200.487 223.289 195.443 210.95 184.72 206.448 Z " fill="rgb(93,173,236)"/></g><g id="g28"><path d=" M 228.49 213.834 L 204.564 207.47 L 210.761 230.934 C 211.9 236.078 215.771 240.437 221.185 241.875 C 228.9 243.927 236.78 239.314 238.797 231.568 C 240.809 223.825 236.201 215.881 228.49 213.834 Z " fill="rgb(93,173,236)"/></g></g></g></g></g></g></svg>