<?xml version="1.0" standalone="no"?><!-- Generator: Gravit.io --><svg xmlns="http://www.w3.org/2000/svg" xmlns:xlink="http://www.w3.org/1999/xlink" style="isolation:isolate" viewBox="0 0 256 256" width="256" height="256"><defs><clipPath id="_clipPath_0YjjEkdSbCsQP0ilH2lXiQUej1zO7cVx"><rect width="256" height="256"/></clipPath></defs><g clip-path="url(#_clipPath_0YjjEkdSbCsQP0ilH2lXiQUej1zO7cVx)"><g id="1f4a6"><g id="g12"><clipPath id="_clipPath_Hf2aRWuu3JTs639hLKK2zMLS1llwvViJ"><path d=" M 120 165.882 L 23.407 140 L -2.474 236.593 L 94.118 262.474 L 120 165.882 Z " fill="rgb(255,255,255)"/></clipPath><g clip-path="url(#_clipPath_Hf2aRWuu3JTs639hLKK2zMLS1llwvViJ)"><g id="g14"><g id="g20"><path d=" M 58.164 154.102 L 91.974 180.233 L 53.477 196.434 C 45.272 200.295 35.267 199.556 27.611 193.639 C 16.719 185.222 14.735 169.546 23.173 158.632 C 31.606 147.71 47.277 145.684 58.164 154.102 Z " fill="rgb(93,173,236)"/></g><g id="g24"><path d=" M 71.28 206.448 L 104.562 192.486 L 100.402 227.459 C 99.815 235.08 95.107 242.12 87.569 245.277 C 76.848 249.774 64.51 244.729 60.01 234.01 C 55.513 223.289 60.557 210.95 71.28 206.448 Z " fill="rgb(93,173,236)"/></g><g id="g28"><path d=" M 27.51 213.834 L 51.436 207.47 L 45.239 230.934 C 44.1 236.078 40.229 240.437 34.815 241.875 C 27.1 243.927 19.22 239.314 17.203 231.568 C 15.191 223.825 19.799 215.881 27.51 213.834 Z " fill="rgb(93,173,236)"/></g></g></g></g></g></g></svg>