<?xml version="1.0" standalone="no"?><!-- Generator: Gravit.io --><svg xmlns="http://www.w3.org/2000/svg" xmlns:xlink="http://www.w3.org/1999/xlink" style="isolation:isolate" viewBox="0 0 256 256" width="256" height="256"><defs><clipPath id="_clipPath_QESdrRtDdgYP4ARwFyPAMhdnOYzaWDRK"><rect width="256" height="256"/></clipPath></defs><g clip-path="url(#_clipPath_QESdrRtDdgYP4ARwFyPAMhdnOYzaWDRK)"><g id="1f640"><g id="g12"><clipPath id="_clipPath_im8gucN1T4B16nUTNb5pBvJKZnIi6j9V"><path d=" M 0 0 L 256 0 L 256 256 L 0 256 L 0 0 Z " fill="rgb(255,255,255)"/></clipPath><g clip-path="url(#_clipPath_im8gucN1T4B16nUTNb5pBvJKZnIi6j9V)"><g id="g14"><g id="g28"><path d=" M 127.997 107.789 C 148.207 107.789 148.207 111.158 148.207 117.895 C 148.207 124.632 138.102 138.105 127.997 138.105 C 117.891 138.105 107.786 124.632 107.786 117.895 C 107.786 111.158 107.786 107.789 127.997 107.789 Z " fill="rgb(103,117,127)"/></g><g id="g32"><path d=" M 208.329 144.882 L 174.503 151.646 C 172.671 152.009 171.485 153.781 171.855 155.607 C 172.179 157.21 173.58 158.315 175.15 158.315 C 175.372 158.315 175.601 158.295 175.817 158.248 L 204.091 152.596 C 205.412 149.833 206.826 147.26 208.329 144.882 Z " fill="rgb(154,170,180)"/></g><g id="g36"><path d=" M 232.829 128 C 232.869 128 232.896 128.007 232.936 128.007 L 243.594 124.456 C 245.352 123.87 246.309 121.964 245.723 120.199 C 245.13 118.434 243.237 117.477 241.459 118.07 L 180.827 138.274 C 179.069 138.867 178.112 140.773 178.698 142.538 C 179.17 143.946 180.483 144.842 181.891 144.842 C 182.248 144.842 182.605 144.788 182.963 144.674 L 219.544 132.473 C 223.606 129.624 228.039 128 232.829 128 Z " fill="rgb(154,170,180)"/></g><g id="g40"><path d=" M 81.503 151.645 L 47.63 144.868 C 49.132 147.253 50.547 149.826 51.868 152.588 L 80.183 158.247 C 80.405 158.294 80.627 158.314 80.843 158.314 C 82.419 158.314 83.827 157.21 84.144 155.606 C 84.508 153.781 83.329 152.009 81.503 151.645 Z " fill="rgb(154,170,180)"/></g><g id="g44"><path d=" M 75.171 138.276 L 14.539 118.066 C 12.761 117.48 10.868 118.436 10.282 120.195 C 9.689 121.966 10.646 123.873 12.411 124.459 L 23.075 128.016 C 23.109 128.016 23.136 128.003 23.176 128.003 C 27.946 128.003 32.358 129.62 36.401 132.456 L 73.042 144.67 C 73.393 144.791 73.756 144.845 74.107 144.845 C 75.515 144.845 76.828 143.949 77.3 142.541 C 77.886 140.776 76.936 138.869 75.171 138.276 Z " fill="rgb(154,170,180)"/></g></g></g></g></g></g></svg>