<?xml version="1.0" standalone="no"?><!-- Generator: Gravit.io --><svg xmlns="http://www.w3.org/2000/svg" xmlns:xlink="http://www.w3.org/1999/xlink" style="isolation:isolate" viewBox="0 0 256 256" width="256" height="256"><defs><clipPath id="_clipPath_lO9MdJkPSmxkFgz0fhKMglV5HnWVvNFR"><rect width="256" height="256"/></clipPath></defs><g clip-path="url(#_clipPath_lO9MdJkPSmxkFgz0fhKMglV5HnWVvNFR)"><g id="1f60e"><g id="g12"><clipPath id="_clipPath_iF02fBSsDQbu2V89tw4fKreBD7yS26Xh"><path d=" M 0 0 L 256 0 L 256 256 L 0 256 L 0 0 Z " fill="rgb(255,255,255)"/></clipPath><g clip-path="url(#_clipPath_iF02fBSsDQbu2V89tw4fKreBD7yS26Xh)"><g id="g14"><g id="g24"><path d=" M 15.092 80.961 C 16.709 82.571 24.773 87.415 26.39 92.245 C 28.006 97.075 31.24 124.474 40.928 132.538 C 50.925 140.844 88.604 137.752 95.826 134.155 C 111.974 126.104 113.955 103.63 116.811 92.245 C 118.422 85.798 128.109 85.798 128.109 85.798 C 128.109 85.798 137.803 85.798 139.414 92.238 C 142.27 103.63 144.264 126.104 160.399 134.148 C 167.627 137.752 205.307 140.844 215.318 132.538 C 224.985 124.474 228.219 97.075 229.835 92.238 C 231.439 87.408 239.516 82.571 241.133 80.961 C 242.757 79.351 242.757 72.903 241.133 71.287 C 237.906 68.066 199.809 65.196 158.789 69.676 C 150.603 70.572 147.491 72.903 128.109 72.903 C 108.741 72.903 105.615 70.572 97.436 69.683 C 56.429 65.196 18.319 68.066 15.092 71.287 C 13.482 72.903 13.482 79.351 15.092 80.961 Z " fill-rule="evenodd" fill="rgb(41,47,51)"/></g></g></g></g></g></g></svg>