<?xml version="1.0" standalone="no"?><!-- Generator: Gravit.io --><svg xmlns="http://www.w3.org/2000/svg" xmlns:xlink="http://www.w3.org/1999/xlink" style="isolation:isolate" viewBox="0 0 256 256" width="256" height="256"><defs><clipPath id="_clipPath_5e4v5HdFkVk41s13nJ6yxIGCkyJKZ0gN"><rect width="256" height="256"/></clipPath></defs><g clip-path="url(#_clipPath_5e4v5HdFkVk41s13nJ6yxIGCkyJKZ0gN)"><g id="1f607"><g id="g12"><clipPath id="_clipPath_UQEWenzzl4Asb8BLvnjO69cR3qxP2PRH"><path d=" M 0 0 L 256 0 L 256 256 L 0 256 L 0 0 Z " fill="rgb(255,255,255)"/></clipPath><g clip-path="url(#_clipPath_UQEWenzzl4Asb8BLvnjO69cR3qxP2PRH)"><g id="g14"><path d=" M 128 6.737 C 187.527 6.737 235.789 18.095 235.789 40.421 C 235.789 62.74 187.527 74.105 128 74.105 C 68.473 74.105 20.211 62.74 20.211 40.421 C 20.211 18.095 68.473 6.737 128 6.737 L 128 6.737 Z  M 84.783 21.913 C 62.162 24.099 47.158 28.668 47.158 37.053 C 47.158 50.075 83.355 53.895 128 53.895 L 128 53.895 C 172.645 53.895 208.842 50.075 208.842 37.053 C 208.842 28.669 193.841 24.1 171.226 21.914 C 157.887 16.473 143.296 13.477 128 13.477 C 112.705 13.477 98.114 16.47 84.783 21.913 Z " fill="rgb(93,173,236)"/></g></g></g></g></g></svg>