<?xml version="1.0" standalone="no"?><!-- Generator: Gravit.io --><svg xmlns="http://www.w3.org/2000/svg" xmlns:xlink="http://www.w3.org/1999/xlink" style="isolation:isolate" viewBox="0 0 256 256" width="256" height="256"><defs><clipPath id="_clipPath_0XtOKKBIYk9JeMPi1ihK41fAYoreamR2"><rect width="256" height="256"/></clipPath></defs><g clip-path="url(#_clipPath_0XtOKKBIYk9JeMPi1ihK41fAYoreamR2)"><g id="1f607"><g id="g12"><clipPath id="_clipPath_emYzJPIR8wJpKF7DXDUasqWydkkLp4lo"><path d=" M 0 0 L 256 0 L 256 256 L 0 256 L 0 0 Z " fill="rgb(255,255,255)"/></clipPath><g clip-path="url(#_clipPath_emYzJPIR8wJpKF7DXDUasqWydkkLp4lo)"><g id="g14"><g id="g28"><path d=" M 128 53.895 C 83.355 53.895 47.158 50.075 47.158 37.053 C 47.158 24.03 83.355 20.211 128 20.211 C 172.645 20.211 208.842 24.03 208.842 37.053 C 208.842 50.075 172.645 53.895 128 53.895 Z  M 128 6.737 C 68.473 6.737 20.211 18.095 20.211 40.421 C 20.211 62.74 68.473 74.105 128 74.105 C 187.527 74.105 235.789 62.74 235.789 40.421 C 235.789 18.095 187.527 6.737 128 6.737 Z " fill="rgb(93,173,236)"/></g></g></g></g></g></g></svg>