<?xml version="1.0" standalone="no"?><!-- Generator: Gravit.io --><svg xmlns="http://www.w3.org/2000/svg" xmlns:xlink="http://www.w3.org/1999/xlink" style="isolation:isolate" viewBox="0 0 256 256" width="256" height="256"><defs><clipPath id="_clipPath_d8gM91mTtI8Ji2DfSBHxct6sJLODipzt"><rect width="256" height="256"/></clipPath></defs><g clip-path="url(#_clipPath_d8gM91mTtI8Ji2DfSBHxct6sJLODipzt)"><g id="1f635"><g id="g12"><clipPath id="_clipPath_kosAk1pPONHqKbVaUAIAHuOVwHRLGSCg"><path d=" M 0 0 L 256 0 L 256 256 L 0 256 L 0 0 Z " fill="rgb(255,255,255)"/></clipPath><g clip-path="url(#_clipPath_kosAk1pPONHqKbVaUAIAHuOVwHRLGSCg)"><g id="g14"><g id="g36"><path d=" M 100.474 111.158 L 112.553 99.079 C 115.187 96.445 115.187 92.187 112.553 89.553 C 109.919 86.919 105.661 86.919 103.027 89.553 L 90.948 101.632 L 78.869 89.553 C 76.235 86.919 71.977 86.919 69.343 89.553 C 66.709 92.187 66.709 96.445 69.343 99.079 L 81.422 111.158 L 69.343 123.237 C 66.709 125.871 66.709 130.129 69.343 132.763 C 70.657 134.077 72.381 134.737 74.106 134.737 C 75.831 134.737 77.555 134.077 78.869 132.763 L 90.948 120.684 L 103.027 132.763 C 104.341 134.077 106.066 134.737 107.79 134.737 C 109.515 134.737 111.239 134.077 112.553 132.763 C 115.187 130.129 115.187 125.871 112.553 123.237 L 100.474 111.158 Z " fill="rgb(102,69,0)"/></g></g></g></g></g></g></svg>