<?xml version="1.0" standalone="no"?><!-- Generator: Gravit.io --><svg xmlns="http://www.w3.org/2000/svg" xmlns:xlink="http://www.w3.org/1999/xlink" style="isolation:isolate" viewBox="0 0 256 256" width="256" height="256"><defs><clipPath id="_clipPath_JRRAcBOJLskE55YKEPQpOn8CDGaDG5lA"><rect width="256" height="256"/></clipPath></defs><g clip-path="url(#_clipPath_JRRAcBOJLskE55YKEPQpOn8CDGaDG5lA)"><g id="1f620"><g id="g12"><clipPath id="_clipPath_wgBOhawEnrEGDmSsgwyzZYByBxzsxmKA"><path d=" M 0 0 L 256 0 L 256 256 L 0 256 L 0 0 Z " fill="rgb(255,255,255)"/></clipPath><g clip-path="url(#_clipPath_wgBOhawEnrEGDmSsgwyzZYByBxzsxmKA)"><g id="g14"><g id="g28"><path d=" M 112.552 123.237 C 90.624 101.309 55.384 101.053 53.895 101.053 C 50.176 101.053 47.165 104.064 47.165 107.783 C 47.158 111.495 50.169 114.52 53.888 114.526 C 54.083 114.526 66.856 114.675 80.721 119.491 C 76.726 123.803 74.105 130.499 74.105 138.105 C 74.105 151.134 81.644 161.684 90.947 161.684 C 100.251 161.684 107.789 151.134 107.789 138.105 C 107.789 136.933 107.661 135.815 107.54 134.69 C 107.628 134.69 107.709 134.737 107.789 134.737 C 109.514 134.737 111.239 134.077 112.552 132.763 C 115.187 130.129 115.187 125.871 112.552 123.237 Z " fill="rgb(102,69,0)"/></g></g></g></g></g></g></svg>