<?xml version="1.0" standalone="no"?><!-- Generator: Gravit.io --><svg xmlns="http://www.w3.org/2000/svg" xmlns:xlink="http://www.w3.org/1999/xlink" style="isolation:isolate" viewBox="0 0 256 256" width="256" height="256"><defs><clipPath id="_clipPath_lTJPkMsIfTQxx1W4qUBpVPnYkXmyBneu"><rect width="256" height="256"/></clipPath></defs><g clip-path="url(#_clipPath_lTJPkMsIfTQxx1W4qUBpVPnYkXmyBneu)"><g id="1f61c"><g id="g12"><clipPath id="_clipPath_CpP9Qww9AlXYA5hKXZ0N8HwvocT6wuFW"><path d=" M 256 0 L 0 0 L 0 256 L 256 256 L 256 0 Z " fill="rgb(255,255,255)"/></clipPath><g clip-path="url(#_clipPath_CpP9Qww9AlXYA5hKXZ0N8HwvocT6wuFW)"><g id="g14"><g id="g28"><path d=" M 40.421 104.543 C 40.421 128.728 60.025 148.332 84.211 148.332 C 108.396 148.332 128 128.728 128 104.543 C 128 80.358 108.396 60.754 84.211 60.754 C 60.025 60.754 40.421 80.358 40.421 104.543 Z " fill="rgb(245,248,250)"/></g><g id="g32"><path d=" M 67.368 104.543 C 67.368 113.847 74.907 121.385 84.211 121.385 C 93.514 121.385 101.053 113.847 101.053 104.543 C 101.053 95.239 93.514 87.701 84.211 87.701 C 74.907 87.701 67.368 95.239 67.368 104.543 Z " fill="rgb(41,47,51)"/></g></g></g></g></g></g></svg>