<?xml version="1.0" standalone="no"?><!-- Generator: Gravit.io --><svg xmlns="http://www.w3.org/2000/svg" xmlns:xlink="http://www.w3.org/1999/xlink" style="isolation:isolate" viewBox="0 0 256 256" width="256" height="256"><defs><clipPath id="_clipPath_BBWbQnnDcmG0Q08MfcOhIf6GeGOe7jvn"><rect width="256" height="256"/></clipPath></defs><g clip-path="url(#_clipPath_BBWbQnnDcmG0Q08MfcOhIf6GeGOe7jvn)"><g id="1f613"><g id="g12"><clipPath id="_clipPath_HSTCHHBq3v634RF6bmMdjMBcXbFpvGnT"><path d=" M 0 0 L 256 0 L 256 256 L 0 256 L 0 0 Z " fill="rgb(255,255,255)"/></clipPath><g clip-path="url(#_clipPath_HSTCHHBq3v634RF6bmMdjMBcXbFpvGnT)"><g id="g14"><g id="g28"><path d=" M 124.342 126.632 C 123.938 125.722 114.243 104.42 94.316 104.42 C 74.395 104.42 64.694 125.722 64.29 126.632 C 63.67 128.026 64.074 129.657 65.26 130.613 C 66.445 131.57 68.136 131.604 69.369 130.708 C 69.457 130.647 77.871 124.631 94.316 124.631 C 110.659 124.631 119.067 130.566 119.256 130.701 C 119.848 131.145 120.563 131.368 121.263 131.368 C 122.004 131.368 122.752 131.118 123.365 130.633 C 124.564 129.677 124.962 128.033 124.342 126.632 Z " fill="rgb(102,69,0)"/></g></g></g></g></g></g></svg>