<?xml version="1.0" standalone="no"?><!-- Generator: Gravit.io --><svg xmlns="http://www.w3.org/2000/svg" xmlns:xlink="http://www.w3.org/1999/xlink" style="isolation:isolate" viewBox="0 0 256 256" width="256" height="256"><defs><clipPath id="_clipPath_pMMUpIB6DNIRbkyylLFnNC9vVNwtwml9"><rect width="256" height="256"/></clipPath></defs><g clip-path="url(#_clipPath_pMMUpIB6DNIRbkyylLFnNC9vVNwtwml9)"><g id="1f62b"><g id="g12"><clipPath id="_clipPath_yt4lzJClgsyutEtDrxPZKgmI8Ov6OnNg"><path d=" M 0 0 L 256 0 L 256 256 L 0 256 L 0 0 Z " fill="rgb(255,255,255)"/></clipPath><g clip-path="url(#_clipPath_yt4lzJClgsyutEtDrxPZKgmI8Ov6OnNg)"><g id="g14"><g id="g40"><path d=" M 47.165 134.737 C 45.117 134.737 43.096 133.807 41.768 132.042 C 39.539 129.064 40.138 124.84 43.116 122.611 C 44.079 121.89 62.996 107.911 89.304 102.858 C 72.63 94.498 54.124 94.316 53.888 94.316 C 50.169 94.309 47.158 91.284 47.165 87.572 C 47.165 83.853 50.176 80.842 53.895 80.842 C 55.384 80.842 90.624 81.098 112.552 103.027 C 114.479 104.953 115.059 107.85 114.014 110.37 C 112.97 112.883 110.511 114.526 107.789 114.526 C 76.712 114.526 51.449 133.201 51.2 133.389 C 49.987 134.299 48.566 134.737 47.165 134.737 Z " fill="rgb(102,69,0)"/></g></g></g></g></g></g></svg>