<?xml version="1.0" standalone="no"?><!-- Generator: Gravit.io --><svg xmlns="http://www.w3.org/2000/svg" xmlns:xlink="http://www.w3.org/1999/xlink" style="isolation:isolate" viewBox="0 0 256 256" width="256" height="256"><defs><clipPath id="_clipPath_t32ZbAzg6WJXPceqtDs8AwlBfhbkCESA"><rect width="256" height="256"/></clipPath></defs><g clip-path="url(#_clipPath_t32ZbAzg6WJXPceqtDs8AwlBfhbkCESA)"><g id="1f61d"><g id="g12"><clipPath id="_clipPath_Ji4YEITEW89Rio28mNZRShkVGhzHBVDa"><path d=" M 0 0 L 256 0 L 256 256 L 0 256 L 0 0 Z " fill="rgb(255,255,255)"/></clipPath><g clip-path="url(#_clipPath_Ji4YEITEW89Rio28mNZRShkVGhzHBVDa)"><g id="g14"><g id="g36"><path d=" M 112.552 103.027 C 90.624 81.098 55.384 80.842 53.895 80.842 C 50.176 80.842 47.165 83.853 47.165 87.572 C 47.158 91.284 50.169 94.309 53.888 94.316 C 54.063 94.316 64.384 94.424 76.524 97.927 C 75.042 99.685 74.105 101.935 74.105 104.421 C 74.105 105.25 74.233 106.045 74.422 106.819 C 56.125 113.004 43.884 122.038 43.116 122.611 C 40.138 124.84 39.539 129.064 41.768 132.042 C 43.089 133.807 45.117 134.737 47.165 134.737 C 48.566 134.737 49.987 134.299 51.2 133.389 C 51.449 133.201 76.712 114.526 107.789 114.526 C 110.511 114.526 112.97 112.883 114.014 110.37 C 115.059 107.85 114.479 104.953 112.552 103.027 Z " fill="rgb(102,69,0)"/></g></g></g></g></g></g></svg>