<?xml version="1.0" standalone="no"?><!-- Generator: Gravit.io --><svg xmlns="http://www.w3.org/2000/svg" xmlns:xlink="http://www.w3.org/1999/xlink" style="isolation:isolate" viewBox="0 0 256 256" width="256" height="256"><defs><clipPath id="_clipPath_Euk3a0brsY6WRjxMbSwMtcd6O8Gkmu3R"><rect width="256" height="256"/></clipPath></defs><g clip-path="url(#_clipPath_Euk3a0brsY6WRjxMbSwMtcd6O8Gkmu3R)"><g id="1f629"><g id="g12"><clipPath id="_clipPath_Qmy864ARZQM7nf66l08QjvGKeSR76wSa"><path d=" M 0 0 L 256 0 L 256 256 L 0 256 L 0 0 Z " fill="rgb(255,255,255)"/></clipPath><g clip-path="url(#_clipPath_Qmy864ARZQM7nf66l08QjvGKeSR76wSa)"><g id="g14"><g id="g24"><path d=" M 119 77.763 C 117.606 77.157 115.962 77.561 115.012 78.76 C 114.945 78.841 108.417 86.858 92.545 91.183 C 87.324 92.611 82.231 93.332 77.427 93.332 C 70.738 93.332 66.924 91.904 66.904 91.897 C 65.49 91.331 63.852 91.803 62.95 93.043 C 62.04 94.282 62.087 95.973 63.058 97.159 C 63.536 97.752 75.042 111.629 90.84 111.629 C 93.205 111.629 95.57 111.306 97.867 110.686 C 117.094 105.438 120.839 82.331 120.988 81.354 C 121.217 79.845 120.395 78.376 119 77.763 Z " fill="rgb(102,69,0)"/></g></g></g></g></g></g></svg>