<?xml version="1.0" standalone="no"?><!-- Generator: Gravit.io --><svg xmlns="http://www.w3.org/2000/svg" xmlns:xlink="http://www.w3.org/1999/xlink" style="isolation:isolate" viewBox="0 0 256 256" width="256" height="256"><defs><clipPath id="_clipPath_qyBEKLkz9p5VzimBfS1LEuf2sdhefRCY"><rect width="256" height="256"/></clipPath></defs><g clip-path="url(#_clipPath_qyBEKLkz9p5VzimBfS1LEuf2sdhefRCY)"><g id="1f61e"><g id="g12"><clipPath id="_clipPath_VljZukxWmc8xUfH9afu7zQTONWIeOSxP"><path d=" M 0 0 L 256 0 L 256 256 L 0 256 L 0 0 Z " fill="rgb(255,255,255)"/></clipPath><g clip-path="url(#_clipPath_VljZukxWmc8xUfH9afu7zQTONWIeOSxP)"><g id="g14"><g id="g32"><path d=" M 82.365 111.24 C 80.23 111.24 78.081 111.503 75.986 112.022 C 56.651 116.785 52.319 139.784 52.144 140.761 C 51.874 142.263 52.656 143.752 54.037 144.399 C 54.495 144.614 54.98 144.715 55.458 144.715 C 56.435 144.715 57.392 144.291 58.052 143.51 C 58.119 143.429 64.856 135.574 80.816 131.646 C 85.633 130.46 90.335 129.861 94.781 129.861 C 102.219 129.861 106.45 131.565 106.47 131.572 C 106.921 131.761 107.352 131.841 107.864 131.841 C 109.697 131.922 111.293 130.353 111.293 128.473 C 111.293 127.361 110.754 126.378 109.926 125.765 C 107.453 122.834 96.769 111.24 82.365 111.24 Z " fill="rgb(102,69,0)"/></g></g></g></g></g></g></svg>