<?xml version="1.0" standalone="no"?><!-- Generator: Gravit.io --><svg xmlns="http://www.w3.org/2000/svg" xmlns:xlink="http://www.w3.org/1999/xlink" style="isolation:isolate" viewBox="0 0 256 256" width="256" height="256"><defs><clipPath id="_clipPath_dSywrA1aUKChGfUP1NIoroKqXnH53jKa"><rect width="256" height="256"/></clipPath></defs><g clip-path="url(#_clipPath_dSywrA1aUKChGfUP1NIoroKqXnH53jKa)"><g id="1f61a"><g id="g12"><clipPath id="_clipPath_1BxobtvGn3O2bHkh43Zeez0SIbe0COpW"><path d=" M 0 0 L 256 0 L 256 256 L 0 256 L 0 0 Z " fill="rgb(255,255,255)"/></clipPath><g clip-path="url(#_clipPath_1BxobtvGn3O2bHkh43Zeez0SIbe0COpW)"><g id="g14"><g id="g36"><path d=" M 87.579 111.158 C 68.042 111.158 58.24 125.521 57.829 126.134 C 56.926 127.488 57.128 129.293 58.307 130.425 C 59.493 131.55 61.319 131.672 62.632 130.708 C 62.72 130.648 71.134 124.632 87.579 124.632 C 103.923 124.632 112.33 130.567 112.519 130.701 C 113.118 131.146 113.826 131.368 114.526 131.368 C 115.362 131.368 116.197 131.059 116.844 130.445 C 118.036 129.32 118.238 127.495 117.329 126.134 C 116.918 125.521 107.123 111.158 87.579 111.158 Z " fill="rgb(102,69,0)"/></g></g></g></g></g></g></svg>