<?xml version="1.0" standalone="no"?><!-- Generator: Gravit.io --><svg xmlns="http://www.w3.org/2000/svg" xmlns:xlink="http://www.w3.org/1999/xlink" style="isolation:isolate" viewBox="0 0 256 256" width="256" height="256"><defs><clipPath id="_clipPath_zh9mUCvT2iIoTzloZeeOVO2o4n1igcqL"><rect width="256" height="256"/></clipPath></defs><g clip-path="url(#_clipPath_zh9mUCvT2iIoTzloZeeOVO2o4n1igcqL)"><g id="1f62a"><g id="g12"><clipPath id="_clipPath_aaxMU8ZoKXYKy6xrdJnfJxLiZbcXdHqA"><path d=" M 0 0 L 256 0 L 256 256 L 0 256 L 0 0 Z " fill="rgb(255,255,255)"/></clipPath><g clip-path="url(#_clipPath_aaxMU8ZoKXYKy6xrdJnfJxLiZbcXdHqA)"><g id="g14"><g id="g28"><path d=" M 112.523 125.292 C 112.435 125.353 104.021 131.369 87.576 131.369 C 71.125 131.369 62.717 125.353 62.657 125.306 C 61.343 124.329 59.511 124.417 58.318 125.555 C 57.126 126.68 56.917 128.506 57.826 129.867 C 58.237 130.48 68.033 144.843 87.576 144.843 C 107.12 144.843 116.922 130.48 117.326 129.867 C 118.236 128.513 118.027 126.707 116.848 125.575 C 115.662 124.43 113.83 124.329 112.523 125.292 Z " fill="rgb(102,69,0)"/></g></g></g></g></g></g></svg>