<?xml version="1.0" standalone="no"?><!-- Generator: Gravit.io --><svg xmlns="http://www.w3.org/2000/svg" xmlns:xlink="http://www.w3.org/1999/xlink" style="isolation:isolate" viewBox="0 0 256 256" width="256" height="256"><defs><clipPath id="_clipPath_8cjwIw6ywcubYslHXHKOkEhrLkBv8bkd"><rect width="256" height="256"/></clipPath></defs><g clip-path="url(#_clipPath_8cjwIw6ywcubYslHXHKOkEhrLkBv8bkd)"><g id="1f633"><g id="g12"><clipPath id="_clipPath_SbbXbG4BAEIvgBtXiUiac79pSJ0fPwa0"><path d=" M 0 0 L 256 0 L 256 256 L 0 256 L 0 0 Z " fill="rgb(255,255,255)"/></clipPath><g clip-path="url(#_clipPath_SbbXbG4BAEIvgBtXiUiac79pSJ0fPwa0)"><g id="g14"><g id="g36"><path d=" M 121.263 117.895 C 121.263 138.355 104.67 154.947 84.211 154.947 C 63.751 154.947 47.158 138.355 47.158 117.895 C 47.158 97.435 63.751 80.842 84.211 80.842 C 104.67 80.842 121.263 97.435 121.263 117.895 Z " fill="rgb(245,248,250)"/></g><g id="g40"><path d=" M 101.053 117.895 C 101.053 127.198 93.514 134.737 84.211 134.737 C 74.907 134.737 67.368 127.198 67.368 117.895 C 67.368 108.598 74.907 101.053 84.211 101.053 C 93.514 101.053 101.053 108.598 101.053 117.895 Z " fill="rgb(102,69,0)"/></g></g></g></g></g></g></svg>