<?xml version="1.0" standalone="no"?><!-- Generator: Gravit.io --><svg xmlns="http://www.w3.org/2000/svg" xmlns:xlink="http://www.w3.org/1999/xlink" style="isolation:isolate" viewBox="0 0 256 256" width="256" height="256"><defs><clipPath id="_clipPath_Q1HxdCq3mnyQQOJoj9pqo3HEl2tL3ZFF"><rect width="256" height="256"/></clipPath></defs><g clip-path="url(#_clipPath_Q1HxdCq3mnyQQOJoj9pqo3HEl2tL3ZFF)"><g id="1f620"><g id="g12"><clipPath id="_clipPath_v1ltRWO8uPEkARRAxcRxBhAYEACINDLK"><path d=" M 0 0 L 256 0 L 256 256 L 0 256 L 0 0 Z " fill="rgb(255,255,255)"/></clipPath><g clip-path="url(#_clipPath_v1ltRWO8uPEkARRAxcRxBhAYEACINDLK)"><g id="g14"><g id="g24"><path d=" M 178.428 208.026 C 178.125 206.82 170.559 178.526 128.003 178.526 C 85.439 178.526 77.874 206.82 77.577 208.026 C 77.207 209.488 77.867 211.004 79.174 211.758 C 80.488 212.493 82.132 212.291 83.209 211.24 C 83.337 211.112 96.373 198.736 128.003 198.736 C 159.625 198.736 172.668 211.112 172.789 211.24 C 173.436 211.873 174.298 212.21 175.161 212.21 C 175.726 212.21 176.299 212.068 176.818 211.779 C 178.138 211.024 178.798 209.495 178.428 208.026 Z " fill="rgb(102,69,0)"/></g></g></g></g></g></g></svg>