<?xml version="1.0" standalone="no"?><!-- Generator: Gravit.io --><svg xmlns="http://www.w3.org/2000/svg" xmlns:xlink="http://www.w3.org/1999/xlink" style="isolation:isolate" viewBox="0 0 256 256" width="256" height="256"><defs><clipPath id="_clipPath_t41xEesPYD8TGonYEpjqgKPYQzA8pl85"><rect width="256" height="256"/></clipPath></defs><g clip-path="url(#_clipPath_t41xEesPYD8TGonYEpjqgKPYQzA8pl85)"><g id="1f601"><g id="g12"><clipPath id="_clipPath_ff3yTIpBjbC460sAeRIT99UUGtWIhnyr"><path d=" M 0 0 L 256 0 L 256 256 L 0 256 L 0 0 Z " fill="rgb(255,255,255)"/></clipPath><g clip-path="url(#_clipPath_ff3yTIpBjbC460sAeRIT99UUGtWIhnyr)"><g id="g14"><g id="g24"><path d=" M 188.632 188.632 L 67.368 188.632 C 52.547 188.632 40.421 176.505 40.421 161.684 L 40.421 161.684 C 40.421 146.863 52.547 134.737 67.368 134.737 L 188.632 134.737 C 203.453 134.737 215.579 146.863 215.579 161.684 L 215.579 161.684 C 215.579 176.505 203.453 188.632 188.632 188.632 Z " fill="rgb(102,69,0)"/></g><path d=" M 168.421 148.211 L 134.737 148.211 L 134.737 175.158 L 168.421 175.158 L 168.421 148.211 Z " fill="rgb(245,248,250)"/><path d=" M 87.579 175.158 L 121.263 175.158 L 121.263 148.211 L 87.579 148.211 L 87.579 175.158 Z " fill="rgb(245,248,250)"/><g id="g32"><path d=" M 74.105 148.211 L 67.368 148.211 C 59.931 148.211 53.895 154.247 53.895 161.684 C 53.895 169.122 59.931 175.158 67.368 175.158 L 74.105 175.158 L 74.105 148.211 Z " fill="rgb(245,248,250)"/></g><g id="g36"><path d=" M 188.632 148.211 L 181.895 148.211 L 181.895 175.158 L 188.632 175.158 C 196.069 175.158 202.105 169.122 202.105 161.684 C 202.105 154.247 196.069 148.211 188.632 148.211 Z " fill="rgb(245,248,250)"/></g></g></g></g></g></g></svg>