<?xml version="1.0" standalone="no"?><!-- Generator: Gravit.io --><svg xmlns="http://www.w3.org/2000/svg" xmlns:xlink="http://www.w3.org/1999/xlink" style="isolation:isolate" viewBox="0 0 256 256" width="256" height="256"><defs><clipPath id="_clipPath_wbrnCeOgu2v0dZMNrWxMzc9diytU0kLD"><rect width="256" height="256"/></clipPath></defs><g clip-path="url(#_clipPath_wbrnCeOgu2v0dZMNrWxMzc9diytU0kLD)"><g id="1f623"><g id="g12"><clipPath id="_clipPath_simCwF83WUZWOe1LYPpUv6tToE0gMpwS"><path d=" M 0 0 L 256 0 L 256 256 L 0 256 L 0 0 Z " fill="rgb(255,255,255)"/></clipPath><g clip-path="url(#_clipPath_simCwF83WUZWOe1LYPpUv6tToE0gMpwS)"><g id="g14"><g id="g40"><path d=" M 178.217 214.171 C 177.422 212.44 158.418 171.789 129.644 171.789 C 101.02 171.789 78.808 212.258 77.879 213.976 C 77.117 215.384 77.454 217.128 78.68 218.159 C 79.307 218.685 80.075 218.947 80.843 218.947 C 81.584 218.947 82.325 218.705 82.938 218.213 C 83.154 218.045 104.247 201.506 129.644 201.506 C 154.86 201.506 172.679 217.876 172.855 218.038 C 174.034 219.129 175.832 219.251 177.126 218.307 C 178.433 217.371 178.891 215.64 178.217 214.171 Z " fill="rgb(102,69,0)"/></g></g></g></g></g></g></svg>