<?xml version="1.0" standalone="no"?><!-- Generator: Gravit.io --><svg xmlns="http://www.w3.org/2000/svg" xmlns:xlink="http://www.w3.org/1999/xlink" style="isolation:isolate" viewBox="0 0 256 256" width="256" height="256"><defs><clipPath id="_clipPath_VdAcnlki9fh1WVFJYGQ7nRNVbjjaFGox"><rect width="256" height="256"/></clipPath></defs><g clip-path="url(#_clipPath_VdAcnlki9fh1WVFJYGQ7nRNVbjjaFGox)"><g id="1f62b"><g id="g12"><clipPath id="_clipPath_qaiPTvHIYkSbsv8pUK0Odonjm8UAiMc3"><path d=" M 0 0 L 256 0 L 256 256 L 0 256 L 0 0 Z " fill="rgb(255,255,255)"/></clipPath><g clip-path="url(#_clipPath_qaiPTvHIYkSbsv8pUK0Odonjm8UAiMc3)"><g id="g14"><g id="g24"><path d=" M 128 151.579 C 65.125 151.579 57.364 207.859 57.29 208.424 C 57.142 209.57 57.6 210.708 58.496 211.449 C 59.102 211.948 59.864 212.211 60.632 212.211 C 60.989 212.211 61.346 212.15 61.696 212.042 C 62.093 211.907 101.901 198.737 128 198.737 C 165.693 198.737 193.651 211.759 193.927 211.887 C 195.011 212.406 196.345 212.291 197.342 211.571 C 198.333 210.85 198.865 209.644 198.71 208.424 C 198.636 207.859 190.875 151.579 128 151.579 Z " fill="rgb(102,69,0)"/></g><g id="g36"><path d=" M 128 161.684 C 154.947 161.684 168.421 175.158 168.421 175.158 L 87.579 175.158 C 87.579 175.158 101.053 161.684 128 161.684 Z " fill="rgb(204,214,221)"/></g></g></g></g></g></g></svg>