<?xml version="1.0" standalone="no"?><!-- Generator: Gravit.io --><svg xmlns="http://www.w3.org/2000/svg" xmlns:xlink="http://www.w3.org/1999/xlink" style="isolation:isolate" viewBox="0 0 256 256" width="256" height="256"><defs><clipPath id="_clipPath_eTGNaTbkO1QMftHIVv46JJYcWYsvuE9a"><rect width="256" height="256"/></clipPath></defs><g clip-path="url(#_clipPath_eTGNaTbkO1QMftHIVv46JJYcWYsvuE9a)"><g id="1f62d"><g id="g12"><clipPath id="_clipPath_xZ2nQXgNE0PPnsGKfAROQlcDuNNAIdGv"><path d=" M 0 0 L 256 0 L 256 256 L 0 256 L 0 0 Z " fill="rgb(255,255,255)"/></clipPath><g clip-path="url(#_clipPath_xZ2nQXgNE0PPnsGKfAROQlcDuNNAIdGv)"><g id="g14"><g id="g24"><path d=" M 154.947 188.632 C 154.947 207.245 142.882 208.842 128 208.842 C 113.112 208.842 101.053 207.245 101.053 188.632 C 101.053 170.031 113.112 148.211 128 148.211 C 142.882 148.211 154.947 170.031 154.947 188.632 Z " fill="rgb(102,69,0)"/></g><g id="g52"><path d=" M 148.211 188.632 C 148.211 199.795 139.163 202.105 128 202.105 C 116.837 202.105 107.789 199.795 107.789 188.632 C 107.789 177.469 116.837 175.158 128 175.158 C 139.163 175.158 148.211 177.469 148.211 188.632 Z " fill="rgb(231,90,112)"/></g></g></g></g></g></g></svg>