<?xml version="1.0" standalone="no"?><!-- Generator: Gravit.io --><svg xmlns="http://www.w3.org/2000/svg" xmlns:xlink="http://www.w3.org/1999/xlink" style="isolation:isolate" viewBox="0 0 256 256" width="256" height="256"><defs><clipPath id="_clipPath_73LjLaQUFwIKHmHgY5C4RTdVGUzP1Jwj"><rect width="256" height="256"/></clipPath></defs><g clip-path="url(#_clipPath_73LjLaQUFwIKHmHgY5C4RTdVGUzP1Jwj)"><g id="1f629"><g id="g12"><clipPath id="_clipPath_MpMZEYZaGnRUblNSlXM7jCjxzp2ygNLv"><path d=" M 0 0 L 256 0 L 256 256 L 0 256 L 0 0 Z " fill="rgb(255,255,255)"/></clipPath><g clip-path="url(#_clipPath_MpMZEYZaGnRUblNSlXM7jCjxzp2ygNLv)"><g id="g14"><g id="g40"><path d=" M 128 201.868 C 103.592 201.868 87.397 204.711 67.368 208.605 C 62.794 209.487 53.895 208.605 53.895 195.131 C 53.895 168.184 84.851 134.5 128 134.5 C 171.143 134.5 202.105 168.184 202.105 195.131 C 202.105 208.605 193.206 209.494 188.632 208.605 C 168.603 204.711 152.408 201.868 128 201.868 Z " fill="rgb(102,69,0)"/></g><g id="g44"><path d=" M 74.102 175.158 C 74.102 175.158 94.312 168.421 127.997 168.421 C 161.688 168.421 181.898 175.158 181.898 175.158 C 181.898 175.158 168.424 148.211 127.997 148.211 C 87.576 148.211 74.102 175.158 74.102 175.158 Z " fill="rgb(255,255,255)"/></g></g></g></g></g></g></svg>