<?xml version="1.0" standalone="no"?><!-- Generator: Gravit.io --><svg xmlns="http://www.w3.org/2000/svg" xmlns:xlink="http://www.w3.org/1999/xlink" style="isolation:isolate" viewBox="0 0 256 256" width="256" height="256"><defs><clipPath id="_clipPath_dn9lVCpzVRd17lDAOwB4hK8vWiUevLWX"><rect width="256" height="256"/></clipPath></defs><g clip-path="url(#_clipPath_dn9lVCpzVRd17lDAOwB4hK8vWiUevLWX)"><g id="1f60e"><g id="g12"><clipPath id="_clipPath_wuOuGLwylOtJEM1zChTaJk0Mwg4VMNWT"><path d=" M 0 0 L 256 0 L 256 256 L 0 256 L 0 0 Z " fill="rgb(255,255,255)"/></clipPath><g clip-path="url(#_clipPath_wuOuGLwylOtJEM1zChTaJk0Mwg4VMNWT)"><g id="g14"><g id="g28"><path d=" M 190.888 165.921 C 189.689 164.836 187.897 164.769 186.611 165.726 C 186.348 165.921 160.189 185.262 128 185.262 C 95.892 185.262 69.645 165.921 69.389 165.726 C 68.103 164.769 66.311 164.85 65.112 165.921 C 63.919 166.999 63.65 168.777 64.478 170.152 C 65.347 171.6 86.151 205.473 128 205.473 C 169.849 205.473 190.659 171.6 191.522 170.152 C 192.35 168.771 192.088 166.999 190.888 165.921 Z " fill="rgb(102,69,0)"/></g></g></g></g></g></g></svg>