<?xml version="1.0" standalone="no"?><!-- Generator: Gravit.io --><svg xmlns="http://www.w3.org/2000/svg" xmlns:xlink="http://www.w3.org/1999/xlink" style="isolation:isolate" viewBox="0 0 256 256" width="256" height="256"><defs><clipPath id="_clipPath_LqApVfAcuBUNj4pTpjwkviDiQGGQQH4G"><rect width="256" height="256"/></clipPath></defs><g clip-path="url(#_clipPath_LqApVfAcuBUNj4pTpjwkviDiQGGQQH4G)"><g id="1f641"><g id="g12"><clipPath id="_clipPath_B7Kn1yboGQE2puGP4y4XBfistfJnCNlR"><path d=" M 0 0 L 256 0 L 256 256 L 0 256 L 0 0 Z " fill="rgb(255,255,255)"/></clipPath><g clip-path="url(#_clipPath_B7Kn1yboGQE2puGP4y4XBfistfJnCNlR)"><g id="g14"><g id="g32"><path d=" M 65.113 197.87 C 66.312 198.955 68.104 199.022 69.391 198.066 C 69.654 197.87 95.813 178.529 128.001 178.529 C 160.109 178.529 186.356 197.87 186.612 198.066 C 187.899 199.022 189.691 198.942 190.89 197.87 C 192.082 196.793 192.352 195.014 191.523 193.64 C 190.654 192.191 169.851 158.318 128.001 158.318 C 86.152 158.318 65.342 192.191 64.48 193.64 C 63.651 195.021 63.914 196.793 65.113 197.87 Z " fill="rgb(102,69,0)"/></g></g></g></g></g></g></svg>